<svg xmlns="http://www.w3.org/2000/svg" fill="none" viewBox="0 0 1200 500"><defs><radialGradient id="a" cx="50%" cy="50%" r="30%"><stop offset="0%" stop-color="#c9a84c" stop-opacity=".08"/><stop offset="100%" stop-color="#c9a84c" stop-opacity="0"/></radialGradient></defs><circle cx="600" cy="250" r="300" fill="url(#a)"/><g stroke="#c9a84c" opacity=".1" transform="translate(600 250)"><circle r="120"/><circle r="95" stroke-width=".8"/><circle r="70" stroke-width=".8"/><circle r="45" stroke-width=".6"/><circle r="20" stroke-width=".6"/><ellipse cy="-60" stroke-width=".8" rx="18" ry="40"/><ellipse cy="-60" stroke-width=".8" rx="18" ry="40" transform="rotate(45 0 0)"/><ellipse cy="-60" stroke-width=".8" rx="18" ry="40" transform="rotate(90 0 0)"/><ellipse cy="-60" stroke-width=".8" rx="18" ry="40" transform="rotate(135 0 0)"/><ellipse cy="-60" stroke-width=".8" rx="18" ry="40" transform="rotate(180 0 0)"/><ellipse cy="-60" stroke-width=".8" rx="18" ry="40" transform="rotate(225 0 0)"/><ellipse cy="-60" stroke-width=".8" rx="18" ry="40" transform="rotate(270 0 0)"/><ellipse cy="-60" stroke-width=".8" rx="18" ry="40" transform="rotate(315 0 0)"/><ellipse cy="-95" stroke-width=".6" rx="14" ry="30" transform="rotate(22.5 0 0)"/><ellipse cy="-95" stroke-width=".6" rx="14" ry="30" transform="rotate(67.5 0 0)"/><ellipse cy="-95" stroke-width=".6" rx="14" ry="30" transform="rotate(112.5 0 0)"/><ellipse cy="-95" stroke-width=".6" rx="14" ry="30" transform="rotate(157.5 0 0)"/><ellipse cy="-95" stroke-width=".6" rx="14" ry="30" transform="rotate(202.5 0 0)"/><ellipse cy="-95" stroke-width=".6" rx="14" ry="30" transform="rotate(247.5 0 0)"/><ellipse cy="-95" stroke-width=".6" rx="14" ry="30" transform="rotate(292.5 0 0)"/><ellipse cy="-95" stroke-width=".6" rx="14" ry="30" transform="rotate(337.5 0 0)"/><path stroke-width=".5" d="M-120 0h240M0-120v240M-85-85 85 85m0-170L-85 85"/></g><g opacity=".1" transform="translate(80 70)"><ellipse cy="-12" stroke="#c9a84c" stroke-width=".8" rx="8" ry="18"/><ellipse cy="-12" stroke="#c9a84c" stroke-width=".8" rx="8" ry="18" transform="rotate(36 0 0)"/><ellipse cy="-12" stroke="#c9a84c" stroke-width=".8" rx="8" ry="18" transform="rotate(72 0 0)"/><ellipse cy="-12" stroke="#c9a84c" stroke-width=".8" rx="8" ry="18" transform="rotate(108 0 0)"/><ellipse cy="-12" stroke="#c9a84c" stroke-width=".8" rx="8" ry="18" transform="rotate(144 0 0)"/><ellipse cy="-12" stroke="#c9a84c" stroke-width=".8" rx="8" ry="18" transform="rotate(180 0 0)"/><ellipse cy="-12" stroke="#c9a84c" stroke-width=".8" rx="8" ry="18" transform="rotate(216 0 0)"/><ellipse cy="-12" stroke="#c9a84c" stroke-width=".8" rx="8" ry="18" transform="rotate(252 0 0)"/><ellipse cy="-12" stroke="#c9a84c" stroke-width=".8" rx="8" ry="18" transform="rotate(288 0 0)"/><ellipse cy="-12" stroke="#c9a84c" stroke-width=".8" rx="8" ry="18" transform="rotate(324 0 0)"/><circle r="6" fill="#c9a84c" fill-opacity=".3"/></g><g opacity=".1" transform="translate(1120 70)"><ellipse cy="-12" stroke="#c9a84c" stroke-width=".8" rx="8" ry="18"/><ellipse cy="-12" stroke="#c9a84c" stroke-width=".8" rx="8" ry="18" transform="rotate(36 0 0)"/><ellipse cy="-12" stroke="#c9a84c" stroke-width=".8" rx="8" ry="18" transform="rotate(72 0 0)"/><ellipse cy="-12" stroke="#c9a84c" stroke-width=".8" rx="8" ry="18" transform="rotate(108 0 0)"/><ellipse cy="-12" stroke="#c9a84c" stroke-width=".8" rx="8" ry="18" transform="rotate(144 0 0)"/><ellipse cy="-12" stroke="#c9a84c" stroke-width=".8" rx="8" ry="18" transform="rotate(180 0 0)"/><ellipse cy="-12" stroke="#c9a84c" stroke-width=".8" rx="8" ry="18" transform="rotate(216 0 0)"/><ellipse cy="-12" stroke="#c9a84c" stroke-width=".8" rx="8" ry="18" transform="rotate(252 0 0)"/><ellipse cy="-12" stroke="#c9a84c" stroke-width=".8" rx="8" ry="18" transform="rotate(288 0 0)"/><ellipse cy="-12" stroke="#c9a84c" stroke-width=".8" rx="8" ry="18" transform="rotate(324 0 0)"/><circle r="6" fill="#c9a84c" fill-opacity=".3"/></g><g opacity=".1" transform="translate(80 430)"><ellipse cy="-12" stroke="#c9a84c" stroke-width=".8" rx="8" ry="18"/><ellipse cy="-12" stroke="#c9a84c" stroke-width=".8" rx="8" ry="18" transform="rotate(60 0 0)"/><ellipse cy="-12" stroke="#c9a84c" stroke-width=".8" rx="8" ry="18" transform="rotate(120 0 0)"/><ellipse cy="-12" stroke="#c9a84c" stroke-width=".8" rx="8" ry="18" transform="rotate(180 0 0)"/><ellipse cy="-12" stroke="#c9a84c" stroke-width=".8" rx="8" ry="18" transform="rotate(240 0 0)"/><ellipse cy="-12" stroke="#c9a84c" stroke-width=".8" rx="8" ry="18" transform="rotate(300 0 0)"/><circle r="5" fill="#c9a84c" fill-opacity=".3"/></g><g opacity=".1" transform="translate(1120 430)"><ellipse cy="-12" stroke="#c9a84c" stroke-width=".8" rx="8" ry="18"/><ellipse cy="-12" stroke="#c9a84c" stroke-width=".8" rx="8" ry="18" transform="rotate(60 0 0)"/><ellipse cy="-12" stroke="#c9a84c" stroke-width=".8" rx="8" ry="18" transform="rotate(120 0 0)"/><ellipse cy="-12" stroke="#c9a84c" stroke-width=".8" rx="8" ry="18" transform="rotate(180 0 0)"/><ellipse cy="-12" stroke="#c9a84c" stroke-width=".8" rx="8" ry="18" transform="rotate(240 0 0)"/><ellipse cy="-12" stroke="#c9a84c" stroke-width=".8" rx="8" ry="18" transform="rotate(300 0 0)"/><circle r="5" fill="#c9a84c" fill-opacity=".3"/></g><circle cx="300" cy="100" r="1" fill="#c9a84c" fill-opacity=".15"/><circle cx="900" cy="80" r="1.2" fill="#c9a84c" fill-opacity=".12"/><circle cx="200" cy="350" r="1" fill="#c9a84c" fill-opacity=".1"/><circle cx="1000" cy="400" r="1.5" fill="#c9a84c" fill-opacity=".12"/><circle cx="450" cy="450" r="1" fill="#c9a84c" fill-opacity=".1"/><circle cx="750" cy="60" r="1.2" fill="#c9a84c" fill-opacity=".15"/></svg>