<svg xmlns="http://www.w3.org/2000/svg" fill="none" viewBox="0 0 1200 500"><defs><radialGradient id="a" cx="50%" cy="50%" r="40%"><stop offset="0%" stop-color="#c9a84c" stop-opacity=".05"/><stop offset="100%" stop-color="#c9a84c" stop-opacity="0"/></radialGradient></defs><path fill="url(#a)" d="M0 0h1200v500H0z"/><g stroke="#c9a84c" opacity=".08"><path stroke-width=".8" d="M60 170q10-5 20 0v160q-10 5-20 0Zm20 0q40-15 80 0v160q-40 15-80 0Z"/><path stroke-width=".4" d="m90 190 60-5m-60 25 60-5m-60 25 60-5m-60 25 60-5m-60 25 60-5m-60 25 60-5m-60 25 60-5"/><path stroke-width=".6" d="M60 170q-10 5-8 15t8 10m0 135q-10-5-8-15t8-10"/></g><g stroke="#c9a84c" opacity=".08"><path stroke-width=".8" d="M1140 170q-10-5-20 0v160q10 5 20 0Zm-20 0q-40-15-80 0v160q40 15 80 0Z"/><path stroke-width=".4" d="m1110 190-60-5m60 25-60-5m60 25-60-5m60 25-60-5m60 25-60-5m60 25-60-5m60 25-60-5"/><path stroke-width=".6" d="M1140 170q10 5 8 15t-8 10m0 135q10-5 8-15t-8-10"/></g><g fill="#c9a84c" opacity=".15"><circle cx="380" cy="150" r="2"/><circle cx="450" cy="120" r="1.5"/><circle cx="520" cy="160" r="2.2"/><circle cx="560" cy="110" r="1.8"/><circle cx="620" cy="140" r="2"/><circle cx="680" cy="100" r="1.5"/><circle cx="740" cy="150" r="2"/><circle cx="800" cy="120" r="1.8"/><circle cx="860" cy="155" r="1.5"/></g><path stroke="#c9a84c" stroke-width=".6" d="m380 150 70-30m0 0 70 40m0 0 40-50m0 0 60 30m0 0 60-40m0 0 60 50m0 0 60-30m0 0 60 35" opacity=".08"/><g fill="#c9a84c" opacity=".12"><circle cx="300" cy="350" r="1.8"/><circle cx="380" cy="380" r="1.5"/><circle cx="460" cy="340" r="2"/><circle cx="540" cy="370" r="1.5"/><circle cx="630" cy="350" r="1.8"/><circle cx="720" cy="380" r="2"/><circle cx="800" cy="340" r="1.5"/><circle cx="880" cy="370" r="1.8"/></g><path stroke="#c9a84c" stroke-width=".5" d="m300 350 80 30m0 0 80-40m0 0 80 30m0 0 90-20m0 0 90 30m0 0 80-40m0 0 80 30" opacity=".06"/><circle cx="200" cy="80" r="1" fill="#c9a84c" fill-opacity=".15"/><circle cx="600" cy="50" r="1.5" fill="#fff" fill-opacity=".1"/><circle cx="1000" cy="70" r="1.2" fill="#c9a84c" fill-opacity=".12"/><circle cx="250" cy="450" r="1" fill="#fff" fill-opacity=".1"/><circle cx="600" cy="450" r="1.5" fill="#c9a84c" fill-opacity=".1"/><circle cx="950" cy="440" r="1" fill="#fff" fill-opacity=".1"/><path fill="#c9a84c" fill-opacity=".15" d="m480 250 2-6 2 6-2 6Zm240 0 3-8 3 8-3 8Z"/><path fill="#c9a84c" fill-opacity=".12" d="m600 240 3-10 3 10-3 10Z"/></svg>