<svg xmlns="http://www.w3.org/2000/svg" fill="none" viewBox="0 0 1200 500"><defs><radialGradient id="a" cx="50%" cy="50%" r="35%"><stop offset="0%" stop-color="#c9a84c" stop-opacity=".06"/><stop offset="100%" stop-color="#c9a84c" stop-opacity="0"/></radialGradient></defs><ellipse cx="600" cy="250" fill="url(#a)" rx="400" ry="250"/><g fill="#c9a84c" opacity=".07"><path d="M592 280q-4-20-2-40 1-15 3-30 2-12 4-20 2-5 3-5t2 5v20q-4 15-5 30-1 20 1 40Z"/><path d="M608 280q4-20 2-40-1-15-3-30-2-12-4-20-2-5-3-5t-2 5v20q4 15 5 30 1 20-1 40Zm-15-70q-2-15-1-30 1-8 3-8t2 10q-1 13 0 28Z"/><path d="M590 220q-4-18-3-35 1-7 3-7t2 10q-1 14 1 32Z"/><path d="M589 232q-5-17-5-34 1-8 3-8t2 10q-1 15 2 32Zm18-22q2-15 1-30-1-8-3-8t-2 10q1 13 0 28Z"/><path d="M610 220q4-18 3-35-1-7-3-7t-2 10q1 14-1 32Z"/><path d="M611 232q5-17 5-34-1-8-3-8t-2 10q1 15-2 32Z"/></g><g stroke="#c9a84c" opacity=".1"><path stroke-width=".8" d="M540 30q20-10 40 0 10 5 20-5 10 10 20 5 20-10 40 0"/><circle cx="600" cy="18" r="4" stroke-width=".6"/><path stroke-dasharray="2 6" stroke-width=".5" d="M300 30h230m140 0h230"/><path fill="#c9a84c" fill-opacity=".5" stroke="none" d="m350 30 4-4 4 4-4 4Zm500 0-4-4-4 4 4 4Z"/></g><g stroke="#c9a84c" opacity=".1"><path stroke-width=".8" d="M540 470q20 10 40 0 10-5 20 5 10-10 20-5 20 10 40 0"/><circle cx="600" cy="482" r="4" stroke-width=".6"/><path stroke-dasharray="2 6" stroke-width=".5" d="M300 470h230m140 0h230"/><path fill="#c9a84c" fill-opacity=".5" stroke="none" d="m350 470 4-4 4 4-4 4Zm500 0-4-4-4 4 4 4Z"/></g><g stroke="#c9a84c" stroke-width=".5" opacity=".06"><path stroke-dasharray="3 8" d="M40 60v380"/><circle cx="40" cy="150" r="5"/><circle cx="40" cy="250" r="5"/><circle cx="40" cy="350" r="5"/></g><g stroke="#c9a84c" stroke-width=".5" opacity=".06"><path stroke-dasharray="3 8" d="M1160 60v380"/><circle cx="1160" cy="150" r="5"/><circle cx="1160" cy="250" r="5"/><circle cx="1160" cy="350" r="5"/></g><g stroke="#c9a84c" stroke-width=".7" opacity=".08"><path d="M20 50V20h30"/><path d="M25 45V25h20m1135 25V20h-30"/><path d="M1175 45V25h-20M20 450v30h30"/><path d="M25 455v20h20m1135-25v30h-30"/><path d="M1175 455v20h-20"/></g><circle cx="150" cy="120" r="1" fill="#c9a84c" fill-opacity=".12"/><circle cx="1050" cy="130" r="1.2" fill="#c9a84c" fill-opacity=".1"/><circle cx="200" cy="380" r="1" fill="#c9a84c" fill-opacity=".1"/><circle cx="1000" cy="370" r="1.2" fill="#c9a84c" fill-opacity=".12"/></svg>