<svg xmlns="http://www.w3.org/2000/svg" viewBox="0 0 1920 800" fill="none">
  <defs>
    <radialGradient id="nebula1" cx="30%" cy="40%" r="35%">
      <stop offset="0%" stop-color="#C9A84C" stop-opacity="0.12"/>
      <stop offset="100%" stop-color="#C9A84C" stop-opacity="0"/>
    </radialGradient>
    <radialGradient id="nebula2" cx="70%" cy="60%" r="25%">
      <stop offset="0%" stop-color="#FFFFFF" stop-opacity="0.08"/>
      <stop offset="100%" stop-color="#FFFFFF" stop-opacity="0"/>
    </radialGradient>
  </defs>

  <!-- Nebula swirls -->
  <ellipse cx="580" cy="320" rx="420" ry="260" fill="url(#nebula1)" transform="rotate(-15 580 320)"/>
  <ellipse cx="1340" cy="480" rx="320" ry="200" fill="url(#nebula2)" transform="rotate(20 1340 480)"/>
  <path d="M400 300 Q550 200 700 320 Q850 440 680 500 Q510 560 450 420 Q390 280 400 300Z" fill="#C9A84C" fill-opacity="0.06"/>

  <!-- Scattered stars - small circles -->
  <circle cx="120" cy="80" r="1.5" fill="#FFFFFF" fill-opacity="0.2"/>
  <circle cx="310" cy="150" r="1" fill="#C9A84C" fill-opacity="0.18"/>
  <circle cx="480" cy="60" r="2" fill="#FFFFFF" fill-opacity="0.15"/>
  <circle cx="650" cy="200" r="1.2" fill="#C9A84C" fill-opacity="0.2"/>
  <circle cx="820" cy="90" r="1.8" fill="#FFFFFF" fill-opacity="0.18"/>
  <circle cx="970" cy="170" r="1" fill="#C9A84C" fill-opacity="0.15"/>
  <circle cx="1100" cy="50" r="2.2" fill="#FFFFFF" fill-opacity="0.2"/>
  <circle cx="1280" cy="130" r="1.5" fill="#C9A84C" fill-opacity="0.18"/>
  <circle cx="1450" cy="80" r="1" fill="#FFFFFF" fill-opacity="0.15"/>
  <circle cx="1600" cy="190" r="1.8" fill="#C9A84C" fill-opacity="0.2"/>
  <circle cx="1780" cy="100" r="1.2" fill="#FFFFFF" fill-opacity="0.18"/>
  <circle cx="200" cy="400" r="1.5" fill="#FFFFFF" fill-opacity="0.12"/>
  <circle cx="400" cy="500" r="1" fill="#C9A84C" fill-opacity="0.15"/>
  <circle cx="750" cy="450" r="2" fill="#FFFFFF" fill-opacity="0.1"/>
  <circle cx="1050" cy="380" r="1.2" fill="#C9A84C" fill-opacity="0.15"/>
  <circle cx="1350" cy="550" r="1.5" fill="#FFFFFF" fill-opacity="0.12"/>
  <circle cx="1550" cy="420" r="1" fill="#C9A84C" fill-opacity="0.18"/>
  <circle cx="1750" cy="600" r="1.8" fill="#FFFFFF" fill-opacity="0.1"/>
  <circle cx="100" cy="650" r="1" fill="#FFFFFF" fill-opacity="0.15"/>
  <circle cx="350" cy="720" r="1.5" fill="#C9A84C" fill-opacity="0.12"/>
  <circle cx="600" cy="680" r="1.2" fill="#FFFFFF" fill-opacity="0.1"/>
  <circle cx="900" cy="700" r="2" fill="#C9A84C" fill-opacity="0.15"/>
  <circle cx="1200" cy="750" r="1" fill="#FFFFFF" fill-opacity="0.12"/>
  <circle cx="1500" cy="700" r="1.5" fill="#C9A84C" fill-opacity="0.1"/>
  <circle cx="1850" cy="350" r="1.2" fill="#FFFFFF" fill-opacity="0.15"/>
  <circle cx="60" cy="280" r="1" fill="#C9A84C" fill-opacity="0.18"/>
  <circle cx="1680" cy="500" r="2" fill="#FFFFFF" fill-opacity="0.1"/>
  <circle cx="550" cy="350" r="1.5" fill="#C9A84C" fill-opacity="0.12"/>
  <circle cx="1150" cy="250" r="1" fill="#FFFFFF" fill-opacity="0.18"/>

  <!-- Twinkling star accents (4-point stars) -->
  <path d="M250 300 L252 295 L254 300 L252 305Z" fill="#FFFFFF" fill-opacity="0.2"/>
  <path d="M1400 200 L1402 194 L1404 200 L1402 206Z" fill="#C9A84C" fill-opacity="0.18"/>
  <path d="M900 500 L902 493 L904 500 L902 507Z" fill="#FFFFFF" fill-opacity="0.15"/>
  <path d="M1700 350 L1703 343 L1706 350 L1703 357Z" fill="#C9A84C" fill-opacity="0.15"/>

  <!-- Faint zodiac wheel in bottom-right corner -->
  <g transform="translate(1700, 620)" opacity="0.08">
    <circle cx="0" cy="0" r="160" stroke="#C9A84C" stroke-width="1.5" fill="none"/>
    <circle cx="0" cy="0" r="130" stroke="#C9A84C" stroke-width="1" fill="none"/>
    <circle cx="0" cy="0" r="100" stroke="#C9A84C" stroke-width="0.8" fill="none"/>
    <!-- 12 division lines for zodiac signs -->
    <line x1="0" y1="-160" x2="0" y2="-100" stroke="#C9A84C" stroke-width="0.8"/>
    <line x1="80" y1="-138.6" x2="50" y2="-86.6" stroke="#C9A84C" stroke-width="0.8"/>
    <line x1="138.6" y1="-80" x2="86.6" y2="-50" stroke="#C9A84C" stroke-width="0.8"/>
    <line x1="160" y1="0" x2="100" y2="0" stroke="#C9A84C" stroke-width="0.8"/>
    <line x1="138.6" y1="80" x2="86.6" y2="50" stroke="#C9A84C" stroke-width="0.8"/>
    <line x1="80" y1="138.6" x2="50" y2="86.6" stroke="#C9A84C" stroke-width="0.8"/>
    <line x1="0" y1="160" x2="0" y2="100" stroke="#C9A84C" stroke-width="0.8"/>
    <line x1="-80" y1="138.6" x2="-50" y2="86.6" stroke="#C9A84C" stroke-width="0.8"/>
    <line x1="-138.6" y1="80" x2="-86.6" y2="50" stroke="#C9A84C" stroke-width="0.8"/>
    <line x1="-160" y1="0" x2="-100" y2="0" stroke="#C9A84C" stroke-width="0.8"/>
    <line x1="-138.6" y1="-80" x2="-86.6" y2="-50" stroke="#C9A84C" stroke-width="0.8"/>
    <line x1="-80" y1="-138.6" x2="-50" y2="-86.6" stroke="#C9A84C" stroke-width="0.8"/>
    <!-- Small zodiac symbol dots -->
    <circle cx="0" cy="-145" r="3" fill="#C9A84C"/>
    <circle cx="72.5" cy="-125.5" r="3" fill="#C9A84C"/>
    <circle cx="125.5" cy="-72.5" r="3" fill="#C9A84C"/>
    <circle cx="145" cy="0" r="3" fill="#C9A84C"/>
    <circle cx="125.5" cy="72.5" r="3" fill="#C9A84C"/>
    <circle cx="72.5" cy="125.5" r="3" fill="#C9A84C"/>
  </g>

  <!-- Subtle top-left zodiac arc -->
  <g transform="translate(-60, -40)" opacity="0.06">
    <circle cx="0" cy="0" r="200" stroke="#C9A84C" stroke-width="1.5" fill="none"/>
    <circle cx="0" cy="0" r="170" stroke="#C9A84C" stroke-width="1" fill="none"/>
  </g>
</svg>