<svg xmlns="http://www.w3.org/2000/svg" fill="none" viewBox="0 0 1920 800"><defs><radialGradient id="a" cx="30%" cy="40%" r="35%"><stop offset="0%" stop-color="#c9a84c" stop-opacity=".12"/><stop offset="100%" stop-color="#c9a84c" stop-opacity="0"/></radialGradient><radialGradient id="b" cx="70%" cy="60%" r="25%"><stop offset="0%" stop-color="#fff" stop-opacity=".08"/><stop offset="100%" stop-color="#fff" stop-opacity="0"/></radialGradient></defs><ellipse cx="580" cy="320" fill="url(#a)" rx="420" ry="260" transform="rotate(-15 580 320)"/><ellipse cx="1340" cy="480" fill="url(#b)" rx="320" ry="200" transform="rotate(20 1340 480)"/><path fill="#c9a84c" fill-opacity=".06" d="M400 300q150-100 300 20t-20 180-230-80-50-120"/><circle cx="120" cy="80" r="1.5" fill="#fff" fill-opacity=".2"/><circle cx="310" cy="150" r="1" fill="#c9a84c" fill-opacity=".18"/><circle cx="480" cy="60" r="2" fill="#fff" fill-opacity=".15"/><circle cx="650" cy="200" r="1.2" fill="#c9a84c" fill-opacity=".2"/><circle cx="820" cy="90" r="1.8" fill="#fff" fill-opacity=".18"/><circle cx="970" cy="170" r="1" fill="#c9a84c" fill-opacity=".15"/><circle cx="1100" cy="50" r="2.2" fill="#fff" fill-opacity=".2"/><circle cx="1280" cy="130" r="1.5" fill="#c9a84c" fill-opacity=".18"/><circle cx="1450" cy="80" r="1" fill="#fff" fill-opacity=".15"/><circle cx="1600" cy="190" r="1.8" fill="#c9a84c" fill-opacity=".2"/><circle cx="1780" cy="100" r="1.2" fill="#fff" fill-opacity=".18"/><circle cx="200" cy="400" r="1.5" fill="#fff" fill-opacity=".12"/><circle cx="400" cy="500" r="1" fill="#c9a84c" fill-opacity=".15"/><circle cx="750" cy="450" r="2" fill="#fff" fill-opacity=".1"/><circle cx="1050" cy="380" r="1.2" fill="#c9a84c" fill-opacity=".15"/><circle cx="1350" cy="550" r="1.5" fill="#fff" fill-opacity=".12"/><circle cx="1550" cy="420" r="1" fill="#c9a84c" fill-opacity=".18"/><circle cx="1750" cy="600" r="1.8" fill="#fff" fill-opacity=".1"/><circle cx="100" cy="650" r="1" fill="#fff" fill-opacity=".15"/><circle cx="350" cy="720" r="1.5" fill="#c9a84c" fill-opacity=".12"/><circle cx="600" cy="680" r="1.2" fill="#fff" fill-opacity=".1"/><circle cx="900" cy="700" r="2" fill="#c9a84c" fill-opacity=".15"/><circle cx="1200" cy="750" r="1" fill="#fff" fill-opacity=".12"/><circle cx="1500" cy="700" r="1.5" fill="#c9a84c" fill-opacity=".1"/><circle cx="1850" cy="350" r="1.2" fill="#fff" fill-opacity=".15"/><circle cx="60" cy="280" r="1" fill="#c9a84c" fill-opacity=".18"/><circle cx="1680" cy="500" r="2" fill="#fff" fill-opacity=".1"/><circle cx="550" cy="350" r="1.5" fill="#c9a84c" fill-opacity=".12"/><circle cx="1150" cy="250" r="1" fill="#fff" fill-opacity=".18"/><path fill="#fff" fill-opacity=".2" d="m250 300 2-5 2 5-2 5Z"/><path fill="#c9a84c" fill-opacity=".18" d="m1400 200 2-6 2 6-2 6Z"/><path fill="#fff" fill-opacity=".15" d="m900 500 2-7 2 7-2 7Z"/><path fill="#c9a84c" fill-opacity=".15" d="m1700 350 3-7 3 7-3 7Z"/><g opacity=".08" transform="translate(1700 620)"><circle r="160" stroke="#c9a84c" stroke-width="1.5"/><circle r="130" stroke="#c9a84c"/><circle r="100" stroke="#c9a84c" stroke-width=".8"/><path stroke="#c9a84c" stroke-width=".8" d="M0-160v60m80-38.6-30 52m88.6 6.6-52 30M160 0h-60m38.6 80-52-30M80 138.6l-30-52M0 160v-60m-80 38.6 30-52m-88.6-6.6 52-30M-160 0h60m-38.6-80 52 30m6.6-88.6 30 52"/><circle cy="-145" r="3" fill="#c9a84c"/><circle cx="72.5" cy="-125.5" r="3" fill="#c9a84c"/><circle cx="125.5" cy="-72.5" r="3" fill="#c9a84c"/><circle cx="145" r="3" fill="#c9a84c"/><circle cx="125.5" cy="72.5" r="3" fill="#c9a84c"/><circle cx="72.5" cy="125.5" r="3" fill="#c9a84c"/></g><g stroke="#c9a84c" opacity=".06" transform="translate(-60 -40)"><circle r="200" stroke-width="1.5"/><circle r="170"/></g></svg>