<svg xmlns="http://www.w3.org/2000/svg" fill="none" viewBox="0 0 1200 500"><defs><radialGradient id="a" cx="50%" cy="50%" r="40%"><stop offset="0%" stop-color="#c9a84c" stop-opacity=".06"/><stop offset="100%" stop-color="#c9a84c" stop-opacity="0"/></radialGradient></defs><path fill="url(#a)" d="M0 0h1200v500H0z"/><g stroke="#c9a84c" stroke-width=".8" opacity=".1" transform="translate(600 250)"><circle r="50"/><circle cx="50" r="50"/><circle cx="-50" r="50"/><circle cx="25" cy="43.3" r="50"/><circle cx="-25" cy="43.3" r="50"/><circle cx="25" cy="-43.3" r="50"/><circle cx="-25" cy="-43.3" r="50"/><circle cx="100" r="50"/><circle cx="-100" r="50"/><circle cx="75" cy="43.3" r="50"/><circle cx="-75" cy="43.3" r="50"/><circle cx="75" cy="-43.3" r="50"/><circle cx="-75" cy="-43.3" r="50"/><circle cx="50" cy="86.6" r="50"/><circle cx="-50" cy="86.6" r="50"/><circle cx="50" cy="-86.6" r="50"/><circle cx="-50" cy="-86.6" r="50"/><circle cy="86.6" r="50"/><circle cy="-86.6" r="50"/><circle r="150"/></g><g stroke="#c9a84c" stroke-width=".7" opacity=".08"><path d="m180 190 52 30v60l-52 30-52-30v-60z"/><path d="m180 210 34.6 20v40L180 290l-34.6-20v-40z"/><path d="m180 230 17.3 10v20L180 270l-17.3-10v-20zm0-40v120m-52-90 104 60m-104 0 104-60"/></g><g stroke="#c9a84c" stroke-width=".7" opacity=".08"><path d="m1020 190 52 30v60l-52 30-52-30v-60z"/><path d="m1020 210 34.6 20v40l-34.6 20-34.6-20v-40z"/><path d="m1020 230 17.3 10v20l-17.3 10-17.3-10v-20zm0-40v120m-52-90 104 60m-104 0 104-60"/></g><g stroke="#c9a84c" stroke-width=".6" opacity=".07" transform="translate(60 60)"><path d="m0-30 26 15v30L0 30l-26-15v-30z"/><circle r="30"/></g><g stroke="#c9a84c" stroke-width=".6" opacity=".07" transform="translate(1140 60)"><path d="m0-30 26 15v30L0 30l-26-15v-30z"/><circle r="30"/></g><g stroke="#c9a84c" stroke-width=".6" opacity=".07" transform="translate(60 440)"><path d="m0-30 26 15v30L0 30l-26-15v-30z"/><circle r="30"/></g><g stroke="#c9a84c" stroke-width=".6" opacity=".07" transform="translate(1140 440)"><path d="m0-30 26 15v30L0 30l-26-15v-30z"/><circle r="30"/></g><path stroke="#c9a84c" stroke-opacity=".06" stroke-width=".4" d="m180 120 240 60m360 0 240-60M180 380l240-60m360 0 240 60"/><circle cx="350" cy="100" r="1.5" fill="#c9a84c" fill-opacity=".12"/><circle cx="850" cy="90" r="1" fill="#c9a84c" fill-opacity=".1"/><circle cx="300" cy="400" r="1.2" fill="#c9a84c" fill-opacity=".1"/><circle cx="900" cy="410" r="1.5" fill="#c9a84c" fill-opacity=".12"/></svg>