<svg xmlns="http://www.w3.org/2000/svg" fill="none" viewBox="0 0 1200 500"><defs><linearGradient id="a" x1="0%" x2="100%" y1="0%" y2="0%"><stop offset="0%" stop-color="#c9a84c" stop-opacity="0"/><stop offset="30%" stop-color="#c9a84c" stop-opacity=".1"/><stop offset="70%" stop-color="#c9a84c" stop-opacity=".1"/><stop offset="100%" stop-color="#c9a84c" stop-opacity="0"/></linearGradient><linearGradient id="b" x1="0%" x2="100%" y1="0%" y2="0%"><stop offset="0%" stop-color="#c9a84c" stop-opacity="0"/><stop offset="40%" stop-color="#c9a84c" stop-opacity=".07"/><stop offset="60%" stop-color="#c9a84c" stop-opacity=".07"/><stop offset="100%" stop-color="#c9a84c" stop-opacity="0"/></linearGradient></defs><path stroke="url(#a)" stroke-width="1.2" d="M0 350q150-40 300-10t300-10 300-10 300-10"/><path stroke="url(#b)" d="M0 380q150-40 300-10t300-10 300-10 300-10"/><path stroke="url(#b)" stroke-width=".8" d="M0 410q150-35 300-10t300-10 300-5 300-10"/><path stroke="url(#b)" stroke-width=".8" d="M0 120q150-30 300-10t300-10 300-5 300-5"/><path stroke="url(#b)" stroke-width=".6" d="M0 145q150-30 300-10t300-10 300-5 300-5"/><path fill="#c9a84c" fill-opacity=".18" d="m150 80 2-7 2 7-2 7Zm250-20 2-6 2 6-2 6Zm300 30 3-8 3 8-3 8Zm250-35 2-6 2 6-2 6Zm150 30 2-6 2 6-2 6Z"/><circle cx="80" cy="180" r="1.2" fill="#c9a84c" fill-opacity=".15"/><circle cx="250" cy="220" r="1.5" fill="#fff" fill-opacity=".12"/><circle cx="500" cy="190" r="1" fill="#c9a84c" fill-opacity=".18"/><circle cx="680" cy="240" r="1.2" fill="#fff" fill-opacity=".1"/><circle cx="850" cy="200" r="1.5" fill="#c9a84c" fill-opacity=".15"/><circle cx="1050" cy="180" r="1" fill="#fff" fill-opacity=".12"/><circle cx="180" cy="450" r="1.2" fill="#c9a84c" fill-opacity=".1"/><circle cx="520" cy="460" r="1" fill="#fff" fill-opacity=".1"/><circle cx="780" cy="440" r="1.5" fill="#c9a84c" fill-opacity=".12"/><circle cx="1000" cy="460" r="1" fill="#fff" fill-opacity=".1"/><path fill="#c9a84c" fill-opacity=".12" d="m300 280 3-12 3 12-3 12Zm600-10 4-14 4 14-4 14Z"/><circle cx="300" cy="250" r="80" fill="#c9a84c" fill-opacity=".03"/><circle cx="900" cy="250" r="80" fill="#c9a84c" fill-opacity=".03"/><circle cx="600" cy="250" r="100" fill="#c9a84c" fill-opacity=".04"/></svg>