<svg xmlns="http://www.w3.org/2000/svg" fill="none" viewBox="0 0 600 800"><circle cx="300" cy="320" r="260" fill="#2e2b59" opacity=".05"/><g transform="translate(300 280)"><circle cy="-80" r="70" fill="#2e2b59" stroke="#c9a84c" stroke-width="2" opacity=".1"/><ellipse cy="-100" fill="#c9a84c" opacity=".6" rx="4" ry="12"/><path fill="#2e2b59" stroke="#c9a84c" stroke-width="2" d="M-100 40q0-60 40-70T0-20q20-20 60-10t40 70v80q0 20-20 20H-80q-20 0-20-20Z" opacity=".08"/><path stroke="#c9a84c" stroke-width="1.5" d="M-80-10q20 30 40 40 40 20 80 0 20-10 40-40" opacity=".4"/><ellipse cy="10" stroke="#c9a84c" opacity=".3" rx="35" ry="25"/><circle cy="35" r="5" fill="#c9a84c" opacity=".3"/></g><g opacity=".15" transform="matrix(.6 0 0 .6 300 520)"><path stroke="#c9a84c" stroke-linecap="round" stroke-width="4" d="M-30 20c0-30 15-45 35-45S30-10 20 5-5 30-20 35M20 5C35-5 45-20 40-35S20-55 5-50m0 0C-5-48-10-40-8-32m48-3c10 0 15-5 15-13s-7-12-13-7"/><circle cx="42" cy="-65" r="3" fill="#c9a84c"/></g><g stroke="#c9a84c" stroke-width="1.5" opacity=".2"><path d="M30 30v30m0-30h30"/><path stroke-width="1" d="m30 30 10 10"/><path d="M570 30v30m0-30h-30M30 770v-30m0 30h30m510 0v-30m0 30h-30"/></g><text x="300" y="680" fill="#c9a84c" font-family="serif" font-size="18" opacity=".4" text-anchor="middle">
    Pandit Shree Mahadev Joshi
  </text><text x="300" y="710" fill="#6f4278" font-family="serif" font-size="13" opacity=".3" text-anchor="middle">
    Vedic Astrologer &amp; Spiritual Guide
  </text></svg>