<svg xmlns="http://www.w3.org/2000/svg" fill="none" viewBox="0 0 1200 630"><defs><radialGradient id="b" cx="50%" cy="50%" r="50%"><stop offset="0%" stop-color="#c9a84c" stop-opacity=".15"/><stop offset="100%" stop-color="#c9a84c" stop-opacity="0"/></radialGradient><linearGradient id="a" x1="0" x2="1" y1="0" y2="1"><stop offset="0%" stop-color="#1a1745"/><stop offset="50%" stop-color="#2e2b59"/><stop offset="100%" stop-color="#3d1f4e"/></linearGradient></defs><path fill="url(#a)" d="M0 0h1200v630H0z"/><path fill="url(#b)" d="M0 0h1200v630H0z"/><g fill="#fff" opacity=".3"><circle cx="100" cy="80" r="1.5"/><circle cx="300" cy="150" r="1"/><circle cx="500" cy="60" r="1.5"/><circle cx="700" cy="120" r="1"/><circle cx="900" cy="80" r="1.5"/><circle cx="1100" cy="150" r="1"/><circle cx="200" cy="500" r="1"/><circle cx="400" cy="550" r="1.5"/><circle cx="800" cy="520" r="1"/><circle cx="1000" cy="480" r="1.5"/></g><text x="600" y="200" fill="#c9a84c" font-family="serif" font-size="72" font-weight="bold" text-anchor="middle">
    Believe Astrology
  </text><text x="600" y="280" fill="#fffdf0" font-family="serif" font-size="24" opacity=".8" text-anchor="middle">
    Be Better with Connect to Nature
  </text><path stroke="#c9a84c" d="M400 320h400" opacity=".4"/><text x="600" y="380" fill="#fffdf0" font-family="serif" font-size="28" opacity=".9" text-anchor="middle">
    Pandit Shree Mahadev Joshi
  </text><text x="600" y="420" fill="#f93" font-family="sans-serif" font-size="18" opacity=".8" text-anchor="middle">
    20+ Years Vedic Astrology &amp; Spiritual Consultation
  </text><text x="600" y="520" fill="#fffdf0" font-family="sans-serif" font-size="16" opacity=".5" text-anchor="middle">
    +91 8154992727 | mahadevjoshi91@gmail.com
  </text><rect width="1160" height="590" x="20" y="20" stroke="#c9a84c" opacity=".2" rx="4"/></svg>