<svg xmlns="http://www.w3.org/2000/svg" viewBox="0 0 64 64" fill="none" stroke="#6F4278" stroke-width="2" stroke-linecap="round" stroke-linejoin="round">
  <!-- Outer circle -->
  <circle cx="32" cy="32" r="26"/>
  <!-- Middle circle -->
  <circle cx="32" cy="32" r="17"/>
  <!-- Inner circle -->
  <circle cx="32" cy="32" r="8"/>
  <!-- Center dot -->
  <circle cx="32" cy="32" r="2"/>
  <!-- Eight spokes -->
  <line x1="32" y1="6" x2="32" y2="15"/>
  <line x1="32" y1="49" x2="32" y2="58"/>
  <line x1="6" y1="32" x2="15" y2="32"/>
  <line x1="49" y1="32" x2="58" y2="32"/>
  <line x1="13.6" y1="13.6" x2="20" y2="20"/>
  <line x1="44" y1="44" x2="50.4" y2="50.4"/>
  <line x1="50.4" y1="13.6" x2="44" y2="20"/>
  <line x1="20" y1="44" x2="13.6" y2="50.4"/>
  <!-- Small petal shapes between spokes -->
  <path d="M26,8 Q32,14 38,8" />
  <path d="M26,56 Q32,50 38,56" />
  <path d="M8,26 Q14,32 8,38" />
  <path d="M56,26 Q50,32 56,38" />
</svg>
