<svg xmlns="http://www.w3.org/2000/svg" viewBox="0 0 64 64" fill="none" stroke="#6F4278" stroke-width="2" stroke-linecap="round" stroke-linejoin="round">
  <!-- Gem top crown -->
  <polygon points="12,26 22,10 42,10 52,26"/>
  <!-- Gem bottom pavilion -->
  <polygon points="12,26 52,26 32,56"/>
  <!-- Facet lines - crown -->
  <line x1="22" y1="10" x2="18" y2="26"/>
  <line x1="42" y1="10" x2="46" y2="26"/>
  <line x1="22" y1="10" x2="32" y2="26"/>
  <line x1="42" y1="10" x2="32" y2="26"/>
  <!-- Table top line -->
  <line x1="22" y1="10" x2="42" y2="10"/>
  <!-- Facet lines - pavilion -->
  <line x1="18" y1="26" x2="32" y2="56"/>
  <line x1="46" y1="26" x2="32" y2="56"/>
  <line x1="32" y1="26" x2="32" y2="56"/>
  <!-- Sparkle -->
  <line x1="8" y1="14" x2="10" y2="16"/>
  <line x1="6" y1="16" x2="12" y2="14"/>
  <line x1="54" y1="18" x2="56" y2="20"/>
  <line x1="52" y1="20" x2="58" y2="18"/>
</svg>
