<svg xmlns="http://www.w3.org/2000/svg" fill="none" stroke="#6f4278" stroke-linecap="round" stroke-linejoin="round" stroke-width="2" viewBox="0 0 64 64"><path d="M32 12c-4 8-4 16 0 22 4-6 4-14 0-22"/><path d="M22 18c-2 8 2 14 10 16-4-6-8-12-10-16"/><path d="M14 26c0 6 6 10 18 8-8-2-14-6-18-8m28-8c2 8-2 14-10 16 4-6 8-12 10-16"/><path d="M50 26c0 6-6 10-18 8 8-2 14-6 18-8m-40 8c2 2 10 4 22 2-12 0-18-2-22-2m44 0c-2 2-10 4-22 2 12 0 18-2 22-2M12 44q10-6 20 0 10-6 20 0"/><path d="M16 48q8-6 16 0 8-6 16 0M32 36v8"/></svg>