<svg xmlns="http://www.w3.org/2000/svg" width="48" height="48" viewBox="0 0 48 48"><g fill="none" stroke="#0f0" stroke-width="2"><circle cx="24" cy="24" r="5.5"/><path d="M24 18.5c-1.2-2.3-1.2-6.5 0-9.5 1.2 3 1.2 7.2 0 9.5Zm2.8.3c.5-2.5 2.7-6 4.7-7.6-.5 2.6-2.5 5.8-4.7 7.6Zm2.4 1.4c1.8-2 5.3-3.7 7.8-3.7-1.5 2.3-4.8 4.3-7.8 3.7Zm.3 3.8c2.5-1.5 6.3-1.5 9-.5-2.5 1.7-6.3 2-9 .5Zm-.3 3.8c3-.6 6.3 1.4 7.8 3.7-2.5 0-6-1.7-7.8-3.7Zm-2.4 1.4c2.2 1.8 4.2 5 4.7 7.6-2-1.6-4.2-5.1-4.7-7.6Zm-2.8.3c1.2 2.3 1.2 6.5 0 9.5-1.2-3-1.2-7.2 0-9.5Zm-2.8-.3c-.5 2.5-2.7 6-4.7 7.6.5-2.6 2.5-5.8 4.7-7.6Zm-2.4-1.4c-1.8 2-5.3 3.7-7.8 3.7 1.5-2.3 4.8-4.3 7.8-3.7Zm-.3-3.8c-2.5 1.5-6.3 1.2-9-.5 2.7-1 6.5-1 9 .5Zm.3-3.8c-3 .6-6.3-1.4-7.8-3.7 2.5 0 6 1.7 7.8 3.7Zm2.4-1.4c-2.2-1.8-4.2-5-4.7-7.6 2 1.6 4.2 5.1 4.7 7.6Z"/></g></svg>