<svg xmlns="http://www.w3.org/2000/svg" width="48" height="48" viewBox="0 0 48 48"><g fill="none" stroke="gold" stroke-width="2"><circle cx="24" cy="24" r="6"/><path d="M24 18c-1.5-3-1.5-8 0-12 1.5 4 1.5 9 0 12Zm3.7.5c.8-3.4 3.6-7.5 6.3-9.5-.8 3.6-3.5 7.3-6.3 9.5Zm2.8 2.5c2.8-2.2 7.3-3.5 10.5-3-2 3-6 5-10.5 3Zm.5 3.8c3.2-.8 7.5 0 10.2 2.2-3.2 1.5-7.4 1-10.2-2.2Zm-2 3.4c2.2 2.6 3 6.8 2 10.3-2.2-3-3-7-2-10.3ZM24 30c1.5 3 1.5 8 0 12-1.5-4-1.5-9 0-12Zm-5-1.8c-1 3.3.2 7.3-2 10.3-1-3.5-.2-7.7 2-10.3Zm-2-3.4C14.2 28 10 28.5 6.8 27c2.7-2.2 7-3 10.2-2.2Zm.5-3.8C13 23 9 21 7 18c3.2-.5 7.7.8 10.5 3Zm2.8-2.5c-2.8-2.2-5.5-5.9-6.3-9.5 2.7 2 5.5 6.1 6.3 9.5Z"/></g></svg>