<svg xmlns="http://www.w3.org/2000/svg" viewBox="0 0 48 48" width="48" height="48">
  <g fill="none" stroke="#FF0000" stroke-width="2">
    <!-- Central circle -->
    <circle cx="24" cy="24" r="8"/>
    <!-- 4-petal lotus (Root chakra) -->
    <!-- Top petal -->
    <path d="M24,16 C20,12 20,6 24,2 C28,6 28,12 24,16Z"/>
    <!-- Right petal -->
    <path d="M32,24 C36,20 42,20 46,24 C42,28 36,28 32,24Z"/>
    <!-- Bottom petal -->
    <path d="M24,32 C28,36 28,42 24,46 C20,42 20,36 24,32Z"/>
    <!-- Left petal -->
    <path d="M16,24 C12,20 6,20 2,24 C6,28 12,28 16,24Z"/>
  </g>
</svg>