<svg xmlns="http://www.w3.org/2000/svg" width="48" height="48" viewBox="0 0 48 48"><circle cx="24" cy="24" r="4" fill="none" stroke="#8b00ff" stroke-width="2"/><path fill="none" stroke="#8b00ff" stroke-width="1.2" d="M24 20c-.8-1.5-.8-3.5 0-5 .8 1.5.8 3.5 0 5Zm2.5.3c.5-1.5 2-3.1 3-3.5-.3 1.4-1.5 3-3 3.5ZM28 22c1.5-1 3.2-1.5 4.5-1-1 1.2-2.7 1.8-4.5 1Zm0 2c1.5-.5 3.2-.5 4.5 0-1.3.5-3 .5-4.5 0Zm0 2c1.8-.8 3.5-.2 4.5 1-1.3.5-3 0-4.5-1Zm-1.5 1.7c1.5.5 2.7 2.1 3 3.5-1-.4-2.5-2-3-3.5ZM24 28c.8 1.5.8 3.5 0 5-.8-1.5-.8-3.5 0-5Zm-2.5-.3c-.5 1.5-2 3.1-3 3.5.3-1.4 1.5-3 3-3.5ZM20 26c-1.8 1-3.5 1.5-4.5 1 1-1.2 2.7-1.8 4.5-1Zm0-2c-1.5.5-3.2.5-4.5 0 1.3-.5 3-.5 4.5 0Zm0-2c-1.8.8-3.5.2-4.5-1 1.3-.5 3 0 4.5 1Zm1.5-1.7c-1.5-.5-2.7-2.1-3-3.5 1 .4 2.5 2 3 3.5Z"/><path fill="none" stroke="#8b00ff" stroke-width=".8" d="M24 15c-1-2-1-6 0-9 1 3 1 7 0 9Zm2.8.3c.5-2.1 2.2-5.5 3.7-7.3-.5 2.5-1.7 5.5-3.7 7.3Zm2.4 1.2c1.3-1.7 4-4 6-5-1.2 2.3-3.7 4.5-6 5Zm1.8 2c2-1.3 5-2.5 7.2-2.5-1.4 2-4.2 3.5-7.2 2.5Zm1 2.5c2.2-.8 5.2-1 7.5-.2-2 1.4-5 1.7-7.5.2Zm.2 3c2.6-.8 5.6-.5 7.8.5-2.5 1-5.5.7-7.8-.5Zm-.2 3c2.5-1.5 5.5-1.2 7.5.2-2.3.8-5.3.6-7.5-.2Zm-1 2.5c3-1 5.8.5 7.2 2.5-2.2 0-5.2-1.2-7.2-2.5Zm-1.8 2c2.3.5 4.8 2.7 6 5-2-1-4.7-3.3-6-5Zm-2.4 1.2c2 1.8 3.2 4.8 3.7 7.3-1.5-1.8-3.2-5.2-3.7-7.3ZM24 33c1 2 1 6 0 9-1-3-1-7 0-9Zm-2.8-.3c-.5 2.1-2.2 5.5-3.7 7.3.5-2.5 1.7-5.5 3.7-7.3Zm-2.4-1.2c-1.3 1.7-4 4-6 5 1.2-2.3 3.7-4.5 6-5Zm-1.8-2c-2 1.3-5 2.5-7.2 2.5 1.4-2 4.2-3.5 7.2-2.5ZM16 27c-2.5.8-5.2 1-7.5.2 2-1.4 5-1.7 7.5-.2Zm-.2-3c-2.6 1.2-5.3 1.5-7.8.5 2.2-1 5.5-1.3 7.8-.5Zm.2-3c-2.5 1.5-5.5 1.2-7.5-.2 2.3-.8 5.3-.6 7.5.2Zm1-2.5c-3 1-5.8-.5-7.2-2.5 2.2 0 5.2 1.2 7.2 2.5Zm1.8-2c-2.3-.5-4.8-2.7-6-5 2 1 4.7 3.3 6 5Zm2.4-1.2c-2-1.8-3.2-4.8-3.7-7.3 1.5 1.8 3.2 5.2 3.7 7.3Z"/><circle cx="24" cy="24" r="1.5" fill="#8b00ff"/></svg>