<svg xmlns="http://www.w3.org/2000/svg" viewBox="0 0 48 48" width="48" height="48">
  <g fill="none" stroke="#00BFFF" stroke-width="2">
    <!-- Central circle -->
    <circle cx="24" cy="24" r="5"/>
    <!-- 16-petal lotus (Throat chakra) - petals at 22.5 degree intervals -->
    <!-- Compact petals radiating outward -->
    <path d="M24,19 C23,17 23,13.5 24,11 C25,13.5 25,17 24,19Z"/>
    <path d="M26.2,19.2 C26.5,17 28,13.8 29.5,12.2 C29.2,14.5 28,17.5 26.2,19.2Z"/>
    <path d="M28,20.2 C29.2,18.5 32,16.2 34,15.5 C33,17.5 30.5,19.8 28,20.2Z"/>
    <path d="M29.2,21.8 C31.2,20.8 34.2,20 36.2,20.2 C34.8,22 32,23 29.2,21.8Z"/>
    <path d="M29,24 C31.5,23 34.5,23 36.8,24 C34.5,25 31.5,25 29,24Z"/>
    <path d="M29.2,26.2 C32,25 34.8,26 36.2,27.8 C34.2,28 31.2,27.2 29.2,26.2Z"/>
    <path d="M28,27.8 C30.5,28.2 33,30.5 34,32.5 C32,31.8 29.2,29.5 28,27.8Z"/>
    <path d="M26.2,28.8 C28,30.5 29.2,33.5 29.5,35.8 C28,34.2 26.5,31 26.2,28.8Z"/>
    <path d="M24,29 C25,31 25,34.5 24,37 C23,34.5 23,31 24,29Z"/>
    <path d="M21.8,28.8 C21.5,31 20,34.2 18.5,35.8 C18.8,33.5 20,30.5 21.8,28.8Z"/>
    <path d="M20,27.8 C18.8,29.5 16,31.8 14,32.5 C15,30.5 17.5,28.2 20,27.8Z"/>
    <path d="M18.8,26.2 C16.8,27.2 13.8,28 11.8,27.8 C13.2,26 16,25 18.8,26.2Z"/>
    <path d="M19,24 C16.5,25 13.5,25 11.2,24 C13.5,23 16.5,23 19,24Z"/>
    <path d="M18.8,21.8 C16,23 13.2,22 11.8,20.2 C13.8,20 16.8,20.8 18.8,21.8Z"/>
    <path d="M20,20.2 C17.5,19.8 15,17.5 14,15.5 C16,16.2 18.8,18.5 20,20.2Z"/>
    <path d="M21.8,19.2 C20,17.5 18.8,14.5 18.5,12.2 C20,13.8 21.5,17 21.8,19.2Z"/>
  </g>
</svg>