<svg xmlns="http://www.w3.org/2000/svg" width="48" height="48" viewBox="0 0 48 48"><g fill="none" stroke="#00bfff" stroke-width="2"><circle cx="24" cy="24" r="5"/><path d="M24 19c-1-2-1-5.5 0-8 1 2.5 1 6 0 8Zm2.2.2c.3-2.2 1.8-5.4 3.3-7-.3 2.3-1.5 5.3-3.3 7Zm1.8 1c1.2-1.7 4-4 6-4.7-1 2-3.5 4.3-6 4.7Zm1.2 1.6c2-1 5-1.8 7-1.6-1.4 1.8-4.2 2.8-7 1.6ZM29 24c2.5-1 5.5-1 7.8 0-2.3 1-5.3 1-7.8 0Zm.2 2.2c2.8-1.2 5.6-.2 7 1.6-2 .2-5-.6-7-1.6ZM28 27.8c2.5.4 5 2.7 6 4.7-2-.7-4.8-3-6-4.7Zm-1.8 1c1.8 1.7 3 4.7 3.3 7-1.5-1.6-3-4.8-3.3-7ZM24 29c1 2 1 5.5 0 8-1-2.5-1-6 0-8Zm-2.2-.2c-.3 2.2-1.8 5.4-3.3 7 .3-2.3 1.5-5.3 3.3-7Zm-1.8-1c-1.2 1.7-4 4-6 4.7 1-2 3.5-4.3 6-4.7Zm-1.2-1.6c-2 1-5 1.8-7 1.6 1.4-1.8 4.2-2.8 7-1.6ZM19 24c-2.5 1-5.5 1-7.8 0 2.3-1 5.3-1 7.8 0Zm-.2-2.2c-2.8 1.2-5.6.2-7-1.6 2-.2 5 .6 7 1.6Zm1.2-1.6c-2.5-.4-5-2.7-6-4.7 2 .7 4.8 3 6 4.7Zm1.8-1c-1.8-1.7-3-4.7-3.3-7 1.5 1.6 3 4.8 3.3 7Z"/></g></svg>