<svg xmlns="http://www.w3.org/2000/svg" viewBox="0 0 128 128" width="128" height="128">
  <!-- Om symbol - clean and recognizable at small sizes -->
  <path fill="#C9A84C" d="M38,78c-2,4.5-6,7.5-10.5,8.8c-5.5,1.5-11.2-0.2-15-4.5c-3.8-4.2-4.8-10.2-2.5-15.5
    c2-4.8,6.2-8,11.2-8.8c1.2-0.2,2.5-0.2,3.8,0c-0.5-3.8-0.8-7.5-0.2-11.2c1-8,4.5-15.2,10.2-20.8
    c5.8-5.5,13.2-8.5,21.2-8.5c7.8,0,15,2.8,20.5,8c5.5,5.2,8.8,12.2,9.2,20c0.2,3.8,0,7.5-1,11
    c3-2.5,6.8-3.8,10.5-3.2c5,0.5,9.5,3.2,12,7.8c2.5,4.5,3,9.8,1,14.5c-1.8,4.2-5.2,7.5-9.8,8.8
    c-4.2,1.2-9,0.5-12.8-2c-1.2,7-4.5,13.5-9.5,18.5c-6.2,6.2-14.5,9.8-23.2,9.8c-3.8,0-7.2-0.5-10.8-1.8
    l1.5-5.5c2.8,1,6,1.5,9,1.5c7.2,0,14.2-3,19.2-8c4.2-4.2,7-9.8,8-15.5c-3.8-3.8-5.5-9-4.5-14.2
    c0.8-4.5,3.2-8.2,7-10.5c3.8-2.2,8.2-2.8,12.2-1.2c-0.2-0.2-0.2-0.5-0.5-0.8c-1.2,0.8-2.8,1-4.2,1
    c-4.5,0-8-3.5-8-8s3.5-8,8-8s8,3.5,8,8c0,1.5-0.5,3-1.2,4.2c2.5,3.2,3.2,7.5,2.2,11.5
    c-1,3.8-3.8,6.8-7.2,8.2c2,1.2,4.5,1.5,7,1c3-0.8,5.2-3,6.5-5.8c1.2-3.2,1-6.8-0.8-9.8
    c-1.8-3-4.8-5-8.2-5.2c-3.8-0.5-7.5,1.2-9.8,4.2l-1.2-0.8c1.2-4.2,1.8-8.5,1.2-13
    c-0.5-6.8-3.2-12.8-8-17.2c-4.8-4.5-11-7-17.8-7c-6.8,0-13.2,2.5-18.2,7.2c-5,4.8-8,11-8.8,18
    c-0.5,4.5,0,8.8,1,13c2-1.2,4.2-2,6.8-2c5,0,9.5,2.5,12,6.5c2.5,4,3,9,1,13.2
    c-2,4.5-6.2,7.5-11,7.8C43,79.5,40.2,79,38,78z
    M33.5,74c3,2.8,7.2,3.8,11.2,2.5c3.2-1,6-3.5,7.2-6.8c1.2-3,1-6.2-0.5-9
    c-1.8-2.8-4.8-4.5-8.2-4.8c-2.8-0.2-5.5,0.8-7.5,2.5c1.2,3,2,6.2,2,9.8C37.8,70.5,36.2,72.5,33.5,74z
    M26.2,76c2.5,2,5.5,2.8,8.8,2c-0.5-1.2-0.8-2.8-0.8-4.2c0-3.2,1.2-6.5,3-9
    c-1-0.2-1.8-0.2-2.8,0c-3.5,0.5-6.5,2.8-7.8,6C25.5,72.5,25.5,74.2,26.2,76z"/>
  <!-- Chandrabindu (crescent and dot) -->
  <path fill="#C9A84C" d="M62,17c1-2,3-3.2,5.2-3.2c2.2,0,4.2,1.2,5.2,3.2l3.8,7.5c0.5,1,0.2,2.2-0.8,2.8
    c-1,0.5-2.2,0.2-2.8-0.8l-3.8-7.5c-0.5-0.8-1.2-1.2-2-1.2c-0.8,0-1.5,0.5-2,1.2l-3.8,7.5
    c-0.5,1-1.8,1.2-2.8,0.8c-1-0.5-1.2-1.8-0.8-2.8L62,17z"/>
  <circle fill="#C9A84C" cx="67" cy="11" r="3.5"/>
</svg>