<svg xmlns="http://www.w3.org/2000/svg" width="400" height="24" viewBox="0 0 400 24"><g fill="none" stroke="#c9a84c" stroke-linecap="round"><path fill="#c9a84c" d="M200 4s-8 8 0 16c8-8 0-16 0-16Z" opacity=".3"/><path d="M200 4s-8 8 0 16c8-8 0-16 0-16Z"/><path fill="#c9a84c" d="M200 6c-4 0-14 6-10 12 4-6 10-10 10-12Z" opacity=".2"/><path d="M200 6c-4 0-14 6-10 12 4-6 10-10 10-12Z"/><path fill="#c9a84c" d="M200 6c4 0 14 6 10 12-4-6-10-10-10-12Z" opacity=".2"/><path d="M200 6c4 0 14 6 10 12-4-6-10-10-10-12Zm0 2c-8-2-20 2-16 9 6-7 16-9 16-9Z"/><path d="M200 8c8-2 20 2 16 9-6-7-16-9-16-9Zm-16 4c-9-2-19-2-29 0-7 2-10-1-10-1m0 0c-5-3-15-3-25 1m0 0q-10 3-15 0t-15 0m0 0q-10 3-20 0m0 0q-10-3-20 0m0 0q-10 3-20 0m0 0q-10-3-20 0"/><path d="M216 12c9-2 19-2 29 0 7 2 10-1 10-1m0 0c5-3 15-3 25 1m0 0q10 3 15 0t15 0m0 0q10 3 20 0m0 0q10-3 20 0m0 0q10 3 20 0m0 0q10-3 20 0"/><circle cx="145" cy="12" r="1.5" fill="#c9a84c"/><circle cx="120" cy="12" r="1.5" fill="#c9a84c"/><circle cx="90" cy="12" r="1" fill="#c9a84c"/><circle cx="60" cy="12" r="1" fill="#c9a84c"/><circle cx="255" cy="12" r="1.5" fill="#c9a84c"/><circle cx="280" cy="12" r="1.5" fill="#c9a84c"/><circle cx="310" cy="12" r="1" fill="#c9a84c"/><circle cx="340" cy="12" r="1" fill="#c9a84c"/><circle cx="200" cy="12" r="2" fill="#c9a84c"/></g></svg>