<svg xmlns="http://www.w3.org/2000/svg" width="800" height="800" viewBox="0 0 800 800"><g fill="none" stroke="#c9a84c"><circle cx="400" cy="400" r="50"/><circle cx="400" cy="400" r="100"/><circle cx="400" cy="400" r="150"/><circle cx="400" cy="400" r="200"/><circle cx="400" cy="400" r="250"/><circle cx="400" cy="400" r="300"/><circle cx="400" cy="400" r="350"/><circle cx="400" cy="400" r="390"/><g stroke-width=".8"><path d="M400 350q20 30 0-50-20 80 0 50m0 100q20-30 0 50-20-80 0-50m-50-50q30-20-50 0 80 20 50 0m100 0q-30-20 50 0-80 20-50 0"/><path d="M364.6 364.6q25.4 15.4-35.3-35.3 50.7 60.7 35.3 35.3m70.8 70.8Q410 420 470.7 470.7 420 410 435.4 435.4m0-70.8Q420 390 470.7 329.3 410 380 435.4 364.6m-70.8 70.8q15.4-25.4-35.3 35.3 60.7-50.7 35.3-35.3"/></g><path stroke-width=".8" d="M400 300c20-30 20-60 0-50-20-10-20 20 0 50m50 13.4c20-23.4 35-48.4 20-45.4-15-13-25 12-20 45.4m36.6 36.6c23.4-10 43.4-25 33.4-30-10-10-25 10-33.4 30m13.4 50c30 0 55-5 50-15s-30 0-50 15m-13.4 50c23.4 10 43.4 25 33.4 30-10 10-25-10-33.4-30M450 486.6c20 23.4 35 48.4 20 45.4-15 13-25-12-20-45.4M400 500c20 30 20 60 0 50-20 10-20-20 0-50m-50-13.4C330 510 315 535 330 532c15 13 25-12 20-45.4M313.4 450C290 460 270 475 280 480c10 10 25-10 33.4-30M300 400c-30 0-55-5-50-15s30 0 50 15m13.4-50C290 340 270 325 280 320c10-10 25 10 33.4 30m36.6-36.6C330 290 315 265 330 268c15-13 25 12 20 45.4"/><path stroke-width=".7" d="M400 250c10-30 5-55 0-50-5-5-10 20 0 50m38.3 6.1C452 228 455 205 448 208c-7-8-15 17-9.7 48.1m32.4 18.9c19.3-23 29.3-43 22.3-43-7-7-18 16-22.3 43m23.2 31.1C518 292 535 278 528 275c-3-7-23 10-34.1 31.1M500 350c28-5 48-15 45-22-3-6-23 7-45 22m6.1 43.9C532 390 552 382 548 375c0-7-20 3-41.9 18.9M500 450c28 5 48 15 45 22-3 6-23-7-45-22m-6.1 43.9C518 508 535 522 528 525c-3 7-23-10-34.1-31.1M470.7 525c19.3 23 29.3 43 22.3 43-7 7-18-16-22.3-43m-32.4 18.9C452 572 455 595 448 592c-7 8-15-17-9.7-48.1M400 550c10 30 5 55 0 50-5 5-10-20 0-50m-38.3-6.1C348 572 345 595 352 592c7 8 15-17 9.7-48.1M329.3 525C310 548 300 568 307 568c7 7 18-16 22.3-43m-23.2-31.1C282 508 265 522 272 525c3 7 23-10 34.1-31.1M300 450c-28 5-48 15-45 22 3 6 23-7 45-22m0-100c-28-5-48-15-45-22 3-6 23 7 45 22"/><path stroke-width=".6" d="M400 200q50-20 86.6 13.4m0 0Q520 250 550 250m0 0q30 30 36.6 63.4m0 0Q590 350 600 400m0 0q-10 50-13.4 86.6m0 0Q580 520 550 550m0 0q-30 30-63.4 36.6m0 0Q450 590 400 600m0 0q-50-10-86.6-13.4m0 0Q280 580 250 550m0 0q-30-30-36.6-63.4m0 0Q210 450 200 400m0 0q10-50 13.4-86.6m0 0Q220 280 250 250m0 0q30-30 63.4-36.6m0 0Q350 210 400 200"/><g stroke-width=".6"><path d="M400 150c8-30 4-55 0-50-4-5-8 20 0 50m25 2c11-29 11-54 5-50-5-7-10 20-5 50m25 8c15-27 20-52 13-50-6-7-18 20-13 50m23 13c19-23 29-45 21-45-7-8-24 17-21 45m20 19c22-19 37-37 29-40-7-7-30 16-29 40m15 23c27-15 44-30 37-35-8-5-35 15-37 35m12 27c28-10 48-22 42-27-7-7-37 10-42 27m7 31c31-5 51-13 45-20-7-5-40 5-45 20m3 32c30 0 52-5 48-12-6-5-40 0-48 12m0 190c30 0 52 5 48 12-6 5-40 0-48-12m-10 63c28 10 48 22 42 27-7 7-37-10-42-27m-27 50c22 19 37 37 29 40-7 7-30-16-29-40m-43 32c15 27 20 52 13 50-6 7-18-20-13-50m-50 10c8 30 4 55 0 50-4 5-8-20 0-50m-50-10c-15 27-20 52-13 50 6 7 18-20 13-50m-43-32c-22 19-37 37-29 40 7 7 30-16 29-40m-27-50c-28 10-48 22-42 27 7 7 37-10 42-27m-10-63c-30 0-52 5-48 12 6 5 40 0 48-12m0-190c-30 0-52-5-48-12 6-5 40 0 48 12m10-63c-28-10-48-22-42-27 7-7 37 10 42 27m27-50c-22-19-37-37-29-40 7-7 30 16 29 40m43-32c-15-27-20-52-13-50 6-7 18 20 13 50m25-8c-11-29-11-54-5-50 5-7 10 20 5 50"/><path d="M425 152c11-29 11-54 5-50-5-7-10 20-5 50"/></g><path stroke-width=".3" d="M400 350V50m0 400v300m-50-350H50m400 0h300m-385.4-35.4L152.5 152.5m282.9 282.9 212.1 212.1M435.4 364.6l212.1-212.1M364.6 435.4 152.5 647.5M381 351 270 88m149 361 111 263M351 419 88 530m361-149 263-111m-293 81L530 88M381 449 270 712m81-331L88 270m361 149 263 111"/><path stroke-width=".5" d="M400 10q30 20 45 45 15-25 45-35-10 30 0 55 20-20 50-23-15 28-10 53 25-15 52-10-19 25-20 50 28-10 50 3-22 20-29 44 29-4 47 13-25 15-37 37 29 1 42 23-27 7-45 25 28 8 35 32-30 0-50 13 25 15 25 43-30-8-52 0 20 20 14 47-27-13-50-10 13 25 3 50-25-17-48-20 6 27-9 50-20-20-43-25 0 28-20 48-13-23-33-33-7 27-30 43-7-26-24-40-13 24-38 34 0-27-12-47-18 20-43 23 7-28 0-48-23 15-47 12 14-24 12-47-25 10-48 0 18-23 23-45-25 5-47-5 22-17 32-37-25-3-40-20 25-10 38-28-23-10-33-30 25-2 43-17-20-15-26-35 26 2 43-10-15-20-15-40 25 7 45 0-10-23-7-43 24 10 44 7-4-24 6-47 20 15 40 17 2-24 17-44 17 20 33 27 7-25 24-43 13 23 23 46 10-26 25-58Z"/><g fill="#c9a84c" stroke="none"><circle cx="400" cy="300" r="2"/><circle cx="450" cy="313.4" r="2"/><circle cx="486.6" cy="350" r="2"/><circle cx="500" cy="400" r="2"/><circle cx="486.6" cy="450" r="2"/><circle cx="450" cy="486.6" r="2"/><circle cx="400" cy="500" r="2"/><circle cx="350" cy="486.6" r="2"/><circle cx="313.4" cy="450" r="2"/><circle cx="300" cy="400" r="2"/><circle cx="313.4" cy="350" r="2"/><circle cx="350" cy="313.4" r="2"/><circle cx="400" cy="200" r="2.5"/><circle cx="500" cy="227" r="2.5"/><circle cx="573" cy="300" r="2.5"/><circle cx="600" cy="400" r="2.5"/><circle cx="573" cy="500" r="2.5"/><circle cx="500" cy="573" r="2.5"/><circle cx="400" cy="600" r="2.5"/><circle cx="300" cy="573" r="2.5"/><circle cx="227" cy="500" r="2.5"/><circle cx="200" cy="400" r="2.5"/><circle cx="227" cy="300" r="2.5"/><circle cx="300" cy="227" r="2.5"/></g><circle cx="400" cy="400" r="8" fill="#c9a84c" stroke="none"/><circle cx="400" cy="400" r="15" stroke-width="1.5"/><circle cx="400" cy="400" r="25" stroke-width=".8"/></g></svg>