<svg xmlns="http://www.w3.org/2000/svg" width="64" height="64" viewBox="0 0 64 64"><path fill="#c9a84c" d="M20.5 38.2c-.8 1.8-2.4 3-4.2 3.5-2.2.6-4.5-.1-6-1.8a5.86 5.86 0 0 1-1-6.2c.8-1.9 2.5-3.2 4.5-3.5q.75-.15 1.5 0c-.2-1.5-.3-3-.1-4.5.4-3.2 1.8-6.1 4.1-8.3s5.3-3.4 8.5-3.4c3.1 0 6 1.1 8.2 3.2s3.5 4.9 3.7 8c.1 1.5 0 3-.4 4.4 1.2-1 2.7-1.5 4.2-1.3 2 .2 3.8 1.3 4.8 3.1s1.2 3.9.4 5.8c-.7 1.7-2.1 3-3.9 3.5-1.7.5-3.6.2-5.1-.8-.5 2.8-1.8 5.4-3.8 7.4-2.5 2.5-5.8 3.9-9.3 3.9-1.5 0-2.9-.2-4.3-.7l.6-2.2c1.1.4 2.4.6 3.6.6 2.9 0 5.7-1.2 7.7-3.2 1.7-1.7 2.8-3.9 3.2-6.2-1.5-1.5-2.2-3.6-1.8-5.7.3-1.8 1.3-3.3 2.8-4.2s3.3-1.1 4.9-.5c-.1-.1-.1-.2-.2-.3-.5.3-1.1.4-1.7.4-1.8 0-3.2-1.4-3.2-3.2s1.4-3.2 3.2-3.2 3.2 1.4 3.2 3.2c0 .6-.2 1.2-.5 1.7 1 1.3 1.3 3 .9 4.6-.4 1.5-1.5 2.7-2.9 3.3.8.5 1.8.6 2.8.4 1.2-.3 2.1-1.2 2.6-2.3.5-1.3.4-2.7-.3-3.9s-1.9-2-3.3-2.1c-1.5-.2-3 .5-3.9 1.7l-.5-.3c.5-1.7.7-3.4.5-5.2-.2-2.7-1.3-5.1-3.2-6.9s-4.4-2.8-7.1-2.8-5.3 1-7.3 2.9-3.2 4.4-3.5 7.2c-.2 1.8 0 3.5.4 5.2.8-.5 1.7-.8 2.7-.8 2 0 3.8 1 4.8 2.6s1.2 3.6.4 5.3c-.8 1.8-2.5 3-4.4 3.1-.3-.9-1.4-1.1-2.3-1.5m-1.8-1.6c1.2 1.1 2.9 1.5 4.5 1 1.3-.4 2.4-1.4 2.9-2.7.5-1.2.4-2.5-.2-3.6-.7-1.1-1.9-1.8-3.3-1.9-1.1-.1-2.2.3-3 1 .5 1.2.8 2.5.8 3.9 0 .9-.6 1.7-1.7 2.3m-2.9.9c1 .8 2.2 1.1 3.5.8-.2-.5-.3-1.1-.3-1.7 0-1.3.5-2.6 1.2-3.6-.4-.1-.7-.1-1.1 0-1.4.2-2.6 1.1-3.1 2.4-.5.8-.5 1.5-.2 2.1M31 8.5c.4-.8 1.2-1.3 2.1-1.3s1.7.5 2.1 1.3l1.5 3c.2.4.1.9-.3 1.1s-.9.1-1.1-.3l-1.5-3c-.2-.3-.5-.5-.8-.5s-.6.2-.8.5l-1.5 3c-.2.4-.7.5-1.1.3s-.5-.7-.3-1.1z"/><circle cx="33.1" cy="6" r="1.5" fill="#c9a84c"/></svg>