<svg xmlns="http://www.w3.org/2000/svg" viewBox="0 0 64 64" width="64" height="64">
  <path fill="#C9A84C" d="M20.5,38.2c-0.8,1.8-2.4,3-4.2,3.5c-2.2,0.6-4.5-0.1-6-1.8c-1.5-1.7-1.9-4.1-1-6.2
    c0.8-1.9,2.5-3.2,4.5-3.5c0.5-0.1,1-0.1,1.5,0c-0.2-1.5-0.3-3-0.1-4.5c0.4-3.2,1.8-6.1,4.1-8.3
    c2.3-2.2,5.3-3.4,8.5-3.4c3.1,0,6,1.1,8.2,3.2c2.2,2.1,3.5,4.9,3.7,8c0.1,1.5,0,3-0.4,4.4
    c1.2-1,2.7-1.5,4.2-1.3c2,0.2,3.8,1.3,4.8,3.1c1,1.8,1.2,3.9,0.4,5.8c-0.7,1.7-2.1,3-3.9,3.5
    c-1.7,0.5-3.6,0.2-5.1-0.8c-0.5,2.8-1.8,5.4-3.8,7.4c-2.5,2.5-5.8,3.9-9.3,3.9c-1.5,0-2.9-0.2-4.3-0.7
    l0.6-2.2c1.1,0.4,2.4,0.6,3.6,0.6c2.9,0,5.7-1.2,7.7-3.2c1.7-1.7,2.8-3.9,3.2-6.2
    c-1.5-1.5-2.2-3.6-1.8-5.7c0.3-1.8,1.3-3.3,2.8-4.2c1.5-0.9,3.3-1.1,4.9-0.5c-0.1-0.1-0.1-0.2-0.2-0.3
    c-0.5,0.3-1.1,0.4-1.7,0.4c-1.8,0-3.2-1.4-3.2-3.2c0-1.8,1.4-3.2,3.2-3.2c1.8,0,3.2,1.4,3.2,3.2
    c0,0.6-0.2,1.2-0.5,1.7c1,1.3,1.3,3,0.9,4.6c-0.4,1.5-1.5,2.7-2.9,3.3c0.8,0.5,1.8,0.6,2.8,0.4
    c1.2-0.3,2.1-1.2,2.6-2.3c0.5-1.3,0.4-2.7-0.3-3.9c-0.7-1.2-1.9-2-3.3-2.1c-1.5-0.2-3,0.5-3.9,1.7l-0.5-0.3
    c0.5-1.7,0.7-3.4,0.5-5.2c-0.2-2.7-1.3-5.1-3.2-6.9c-1.9-1.8-4.4-2.8-7.1-2.8c-2.7,0-5.3,1-7.3,2.9
    c-2,1.9-3.2,4.4-3.5,7.2c-0.2,1.8,0,3.5,0.4,5.2c0.8-0.5,1.7-0.8,2.7-0.8c2,0,3.8,1,4.8,2.6
    c1,1.6,1.2,3.6,0.4,5.3c-0.8,1.8-2.5,3-4.4,3.1C22.5,38.8,21.4,38.6,20.5,38.2z
    M18.7,36.6c1.2,1.1,2.9,1.5,4.5,1c1.3-0.4,2.4-1.4,2.9-2.7c0.5-1.2,0.4-2.5-0.2-3.6
    c-0.7-1.1-1.9-1.8-3.3-1.9c-1.1-0.1-2.2,0.3-3,1c0.5,1.2,0.8,2.5,0.8,3.9C20.4,35.2,19.8,36,18.7,36.6z
    M15.8,37.5c1,0.8,2.2,1.1,3.5,0.8c-0.2-0.5-0.3-1.1-0.3-1.7c0-1.3,0.5-2.6,1.2-3.6
    c-0.4-0.1-0.7-0.1-1.1,0c-1.4,0.2-2.6,1.1-3.1,2.4C15.5,36.2,15.5,36.9,15.8,37.5z"/>
  <path fill="#C9A84C" d="M31,8.5c0.4-0.8,1.2-1.3,2.1-1.3c0.9,0,1.7,0.5,2.1,1.3l1.5,3c0.2,0.4,0.1,0.9-0.3,1.1
    c-0.4,0.2-0.9,0.1-1.1-0.3l-1.5-3c-0.2-0.3-0.5-0.5-0.8-0.5c-0.3,0-0.6,0.2-0.8,0.5l-1.5,3
    c-0.2,0.4-0.7,0.5-1.1,0.3c-0.4-0.2-0.5-0.7-0.3-1.1L31,8.5z"/>
  <circle fill="#C9A84C" cx="33.1" cy="6" r="1.5"/>
</svg>