<svg xmlns="http://www.w3.org/2000/svg" width="400" height="400" viewBox="0 0 400 400"><g fill="none" stroke="#c9a84c" stroke-width="1.5"><circle cx="200" cy="200" r="190"/><circle cx="200" cy="200" r="160"/><circle cx="200" cy="200" r="130"/><circle cx="200" cy="200" r="40"/><path d="M240 200h150m-155.4-20 129.9-75M220 165.4l75-129.9M200 160V10m-20 155.4L105 35.5M165.4 180 35.5 105M160 200H10m155.4 20L35.5 295M180 234.6l-75 129.9M200 240v150m20-155.4 75 129.9M234.6 220l129.9 75"/></g><g fill="#c9a84c" dominant-baseline="central" font-family="serif" font-size="14" text-anchor="middle"><text x="260" y="188">1</text><text x="248" y="155">2</text><text x="218" y="140">3</text><text x="188" y="140">4</text><text x="158" y="155">5</text><text x="145" y="188">6</text><text x="145" y="218">7</text><text x="158" y="248">8</text><text x="188" y="262">9</text><text x="218" y="262">10</text><text x="248" y="248">11</text><text x="260" y="218">12</text></g><g fill="#c9a84c" dominant-baseline="central" font-family="serif" font-size="13" text-anchor="middle"><text x="370" y="176">♈</text><text x="336" y="103">♉</text><text x="270" y="50">♊</text><text x="190" y="30">♋</text><text x="118" y="55">♌</text><text x="60" y="115">♍</text><text x="32" y="200">♎</text><text x="48" y="290">♏</text><text x="110" y="348">♐</text><text x="195" y="378">♑</text><text x="280" y="355">♒</text><text x="345" y="295">♓</text></g><g fill="none" stroke="#c9a84c"><circle cx="200" cy="200" r="8"/><circle cx="200" cy="200" r="3" fill="#c9a84c"/><path d="M200 192v16m-8-8h16"/></g><path stroke="#c9a84c" stroke-width=".8" d="M388 200h-6m4.2 33.1-5.9-1.7m.6 33.8-5.8-3.2m-9.9 31-5.1-4.8m20.8-153.4-5.8 3.2m11.1 28.9-5.9 1.7M365.2 107l-5.1 4.8m-127-98-1.7 5.9M200 12v6m-33.1-4.2 1.7 5.9m-33.8-.6 3.2 5.8m-31 9.9 4.8 5.1m-77 67.1 5.1 4.8m-20.8 23 5.8 3.2m-11.1 28.9 5.9 1.7M12 200h6m-4.2 33.1 5.9-1.7m-.6 33.8 5.8-3.2m9.9 31 5.1-4.8m67.1 77 4.8-5.1m23 20.8 3.2-5.8m28.9 11.1 1.7-5.9M200 388v-6m33.1 4.2-1.7-5.9m33.8.6-3.2-5.8m31-9.9-4.8-5.1M293 34.8l-4.8 5.1m-23-20.8-3.2 5.8m3.2 356-3.2-5.8m76.5-289.6-4.2 4.2m4.2 224.8-4.2-4.2M85.5 61.5l4.2 4.2M61.5 85.5l4.2 4.2m-4.2 224.8 4.2-4.2m19.8 28.2 4.2-4.2m224.8 4.2-4.2-4.2"/></svg>