<svg xmlns="http://www.w3.org/2000/svg" fill="none" viewBox="0 0 1200 500"><g stroke="#c9a84c" opacity=".15"><path stroke-width="1.2" d="m600 180 40 40-15 50h-50l-15-50z"/><path stroke-width=".6" d="m600 180 25 90m-25-90-25 90m65-50h-80"/><path stroke-width=".5" d="m640 220-65 50m-15-50 65 50"/></g><g stroke="#6f4278" opacity=".12"><path stroke-width=".72" d="m200 100 21 21-9 24h-24l-9-24z"/><path stroke-width=".36" d="m200 100 12 45m-12-45-12 45m33-24h-42"/></g><g stroke="#c9a84c" opacity=".1"><path stroke-width=".6" d="m950 85 17.5 17.5-7.5 20h-20l-7.5-20z"/><path stroke-width=".3" d="m950 85 10 37.5M950 85l-10 37.5"/></g><g stroke="#2e2b59" opacity=".1"><path stroke-width=".6" d="m300 347.5 15 16.5-6 17h-18l-6-17z"/><path stroke-width=".25" d="m300 347.5 9 33.5m-9-33.5-9 33.5"/></g><g stroke="#6f4278" opacity=".12"><path stroke-width=".66" d="m880 322.5 19.25 19.25-8.25 22h-22l-8.25-22z"/><path stroke-width=".33" d="m880 322.5 11 41.25m-11-41.25-11 41.25m30.25-22h-38.5"/></g><path stroke="#c9a84c" stroke-width=".6" d="m120 280 10-10 10 10-10 10z" opacity=".1"/><path stroke="#6f4278" stroke-width=".6" d="m1060 200 10-10 10 10-10 10z" opacity=".08"/><path stroke="#2e2b59" stroke-width=".6" d="m450 80 8-8 8 8-8 8z" opacity=".08"/><path stroke="#c9a84c" stroke-width=".6" d="m750 420 8-8 8 8-8 8z" opacity=".08"/><circle cx="400" cy="200" r="1.5" fill="#c9a84c" opacity=".12"/><circle cx="800" cy="180" r="1.5" fill="#6f4278" opacity=".1"/><circle cx="500" cy="400" r="1" fill="#2e2b59" opacity=".08"/><circle cx="1000" cy="300" r="1.5" fill="#c9a84c" opacity=".08"/></svg>