<svg xmlns="http://www.w3.org/2000/svg" fill="none" viewBox="0 0 1200 500"><circle cx="200" cy="120" r="3" fill="#c9a84c" opacity=".2"/><circle cx="280" cy="90" r="2.5" fill="#c9a84c" opacity=".18"/><circle cx="320" cy="160" r="3" fill="#c9a84c" opacity=".2"/><circle cx="250" cy="200" r="2" fill="#c9a84c" opacity=".15"/><circle cx="180" cy="180" r="2.5" fill="#c9a84c" opacity=".18"/><path stroke="#c9a84c" stroke-width=".8" d="m200 120 80-30m0 0 40 70m0 0-70 40m0 0-70-20m0 0 20-60" opacity=".12"/><circle cx="550" cy="180" r="3.5" fill="#6f4278" opacity=".18"/><circle cx="620" cy="130" r="3" fill="#6f4278" opacity=".2"/><circle cx="700" cy="150" r="2.5" fill="#6f4278" opacity=".15"/><circle cx="680" cy="230" r="3" fill="#6f4278" opacity=".18"/><circle cx="590" cy="260" r="2" fill="#6f4278" opacity=".15"/><circle cx="640" cy="200" r="4" fill="#6f4278" opacity=".12"/><path stroke="#6f4278" stroke-width=".8" d="m550 180 70-50m0 0 80 20m0 0-20 80m0 0-90 30m0 0 50-60m0 0-90-20" opacity=".1"/><circle cx="900" cy="280" r="3" fill="#2e2b59" opacity=".18"/><circle cx="970" cy="240" r="2.5" fill="#2e2b59" opacity=".15"/><circle cx="1040" cy="280" r="3" fill="#2e2b59" opacity=".18"/><circle cx="1020" cy="350" r="2" fill="#2e2b59" opacity=".15"/><circle cx="940" cy="360" r="3" fill="#2e2b59" opacity=".2"/><path stroke="#2e2b59" stroke-width=".8" d="m900 280 70-40m0 0 70 40m0 0-20 70m0 0-80 10m0 0-40-80" opacity=".1"/><circle cx="100" cy="350" r="1.5" fill="#c9a84c" opacity=".1"/><circle cx="450" cy="400" r="2" fill="#6f4278" opacity=".08"/><circle cx="800" cy="100" r="1.5" fill="#c9a84c" opacity=".1"/><circle cx="1100" cy="150" r="2" fill="#2e2b59" opacity=".08"/><circle cx="350" cy="350" r="1.5" fill="#c9a84c" opacity=".08"/><circle cx="750" cy="400" r="1.5" fill="#6f4278" opacity=".1"/></svg>