<svg xmlns="http://www.w3.org/2000/svg" fill="none" viewBox="0 0 1200 500"><g opacity=".15" transform="translate(600 260)"><ellipse cy="-45" stroke="#c9a84c" rx="18" ry="40"/><ellipse cx="-35" cy="-30" stroke="#c9a84c" stroke-width=".8" rx="16" ry="38" transform="rotate(-30 -35 -30)"/><ellipse cx="-55" cy="-5" stroke="#6f4278" stroke-width=".8" rx="14" ry="35" transform="rotate(-60 -55 -5)"/><ellipse cx="35" cy="-30" stroke="#c9a84c" stroke-width=".8" rx="16" ry="38" transform="rotate(30 35 -30)"/><ellipse cx="55" cy="-5" stroke="#6f4278" stroke-width=".8" rx="14" ry="35" transform="rotate(60 55 -5)"/><ellipse cx="-65" cy="15" stroke="#2e2b59" stroke-width=".6" rx="12" ry="30" transform="rotate(-80 -65 15)"/><ellipse cx="65" cy="15" stroke="#2e2b59" stroke-width=".6" rx="12" ry="30" transform="rotate(80 65 15)"/><circle cy="-10" r="8" fill="#c9a84c" opacity=".3"/></g><path stroke="#6f4278" stroke-width="1.2" d="M480 300c0-40 60-70 120-30 60-40 120-10 120 30s-60 70-120 30c-60 40-120 10-120-30Z" opacity=".12"/><path stroke="#c9a84c" stroke-width=".8" d="M440 300c0-60 70-100 160-30 90-70 160-30 160 30s-70 100-160 30c-90 70-160 30-160-30Z" opacity=".08"/><circle cx="200" cy="150" r="2" fill="#c9a84c" opacity=".1"/><circle cx="1000" cy="130" r="2" fill="#6f4278" opacity=".08"/><circle cx="150" cy="350" r="1.5" fill="#2e2b59" opacity=".08"/><circle cx="1050" cy="370" r="1.5" fill="#c9a84c" opacity=".08"/><circle cx="350" cy="100" r="1.5" fill="#6f4278" opacity=".1"/><circle cx="850" cy="420" r="2" fill="#2e2b59" opacity=".08"/></svg>