<svg xmlns="http://www.w3.org/2000/svg" fill="none" viewBox="0 0 1200 500"><g opacity=".15" transform="translate(600 250)"><path stroke="#c9a84c" stroke-width="2" d="M0-180v380"/><path fill="#c9a84c" fill-opacity=".08" stroke="#c9a84c" stroke-width="1.2" d="M0-180q-8 20-6 50l6 10 6-10q2-30-6-50"/><path stroke="#c9a84c" stroke-width="1.2" d="M-60-120q5 15 20 40 15 15 25 30l7-5q-12-15-27-35-13-18-25-30"/><path stroke="#c9a84c" d="M-60-120q-5 10 5 25"/><path stroke="#c9a84c" stroke-width="1.2" d="M60-120q-5 15-20 40-15 15-25 30l-7-5q12-15 27-35 13-18 25-30"/><path stroke="#c9a84c" d="M60-120q5 10-5 25m-70 45q15-15 30 0"/><ellipse cy="-30" stroke="#6f4278" stroke-width=".8" rx="12" ry="8"/><ellipse cy="-10" stroke="#6f4278" stroke-width=".8" rx="12" ry="8"/><path stroke="#6f4278" stroke-width=".5" d="M-6-25v10M6-25v10"/></g><circle cx="600" cy="95" r="5" fill="#c9a84c" opacity=".12"/><path fill="#6f4278" fill-opacity=".05" stroke="#6f4278" stroke-width=".8" d="M585 80q10-10 25-2-12-6-25 2" opacity=".12"/><circle cx="600" cy="100" r="80" stroke="#2e2b59" stroke-width=".5" opacity=".06"/><circle cx="600" cy="100" r="120" stroke="#6f4278" stroke-width=".4" opacity=".04"/><path stroke="#2e2b59" d="M550 460h100m-95 8h90m-85 8h80" opacity=".06"/></svg>