<svg xmlns="http://www.w3.org/2000/svg" fill="none" viewBox="0 0 1200 500"><g opacity=".15" transform="translate(600 240)"><path stroke="#c9a84c" stroke-width="2" d="M-30 30q-10-20 0-40T0-30t25 15-5 30Q10 25-5 25"/><path stroke="#c9a84c" stroke-width="2" d="M-5 25q10-5 20-15Q25-5 35-15q5-10 0-20-7-10-20-5m0 0q5-10-5-15-10 0-15 7"/><path stroke="#c9a84c" stroke-width="1.5" d="M5-60q10-8 20 0"/><circle cx="15" cy="-75" r="4" fill="#c9a84c" opacity=".8"/><path stroke="#c9a84c" stroke-width="2" d="M-30 30q-5 10 5 18 10 4 20-3"/></g><path stroke="#6f4278" d="M680 240q20-40 0-80" opacity=".1"/><path stroke="#6f4278" stroke-width=".8" d="M710 260q30-60 0-120" opacity=".08"/><path stroke="#2e2b59" stroke-width=".6" d="M740 280q40-80 0-160" opacity=".06"/><path stroke="#2e2b59" stroke-width=".5" d="M770 300q50-100 0-200" opacity=".05"/><path stroke="#6f4278" d="M520 240q-20-40 0-80" opacity=".1"/><path stroke="#6f4278" stroke-width=".8" d="M490 260q-30-60 0-120" opacity=".08"/><path stroke="#2e2b59" stroke-width=".6" d="M460 280q-40-80 0-160" opacity=".06"/><path stroke="#2e2b59" stroke-width=".5" d="M430 300q-50-100 0-200" opacity=".05"/><path stroke="#c9a84c" stroke-width=".8" d="M570 140q30-20 60 0" opacity=".08"/><path stroke="#c9a84c" stroke-width=".6" d="M555 115q45-25 90 0" opacity=".06"/><path stroke="#c9a84c" stroke-width=".5" d="M540 90q60-30 120 0" opacity=".05"/><path stroke="#c9a84c" stroke-width=".8" d="M565 340q35 20 70 0" opacity=".08"/><path stroke="#c9a84c" stroke-width=".6" d="M550 365q50 25 100 0" opacity=".06"/><circle cx="820" cy="200" r="1.5" fill="#c9a84c" opacity=".08"/><circle cx="380" cy="210" r="1.5" fill="#c9a84c" opacity=".08"/><circle cx="850" cy="240" r="1" fill="#6f4278" opacity=".06"/><circle cx="350" cy="230" r="1" fill="#6f4278" opacity=".06"/><circle cx="200" cy="400" r="2" fill="#2e2b59" opacity=".06"/><circle cx="215" cy="395" r="2" fill="#2e2b59" opacity=".06"/><circle cx="230" cy="392" r="2" fill="#2e2b59" opacity=".06"/><circle cx="245" cy="390" r="2" fill="#2e2b59" opacity=".06"/><circle cx="260" cy="389" r="2" fill="#2e2b59" opacity=".06"/></svg>