<svg xmlns="http://www.w3.org/2000/svg" fill="none" viewBox="0 0 1200 500"><circle cx="600" cy="250" r="150" stroke="#c9a84c" opacity=".12"/><circle cx="600" cy="250" r="100" stroke="#6f4278" stroke-width=".8" opacity=".1"/><path fill="#c9a84c" d="m600 100 15 120-15-20-15 20z" opacity=".15"/><path fill="#c9a84c" d="m600 400 15-120-15 20-15-20z" opacity=".1"/><path fill="#6f4278" d="m750 250-120-15 20 15-20 15zm-300 0 120-15-20 15 20 15z" opacity=".12"/><path fill="#2e2b59" d="m706 144-81 86 15-5-10 15zm-212 0 81 86-15-5 10 15zm212 212-81-86 15 5-10-15zm-212 0 81-86-15 5 10-15z" opacity=".1"/><circle cx="600" cy="250" r="4" fill="#c9a84c" opacity=".18"/><path stroke="#c9a84c" stroke-dasharray="4,4" d="M600 100V30m0 370v70" opacity=".08"/><path stroke="#6f4278" stroke-dasharray="4,4" d="M750 250h100m-400 0H350" opacity=".08"/><path stroke="#c9a84c" stroke-dasharray="3,3" stroke-width=".8" d="M200 420q150-120 250-170" opacity=".08"/><path stroke="#6f4278" stroke-dasharray="3,3" stroke-width=".8" d="M1000 80Q850 200 750 250" opacity=".08"/><path stroke="#c9a84c" stroke-width=".5" d="M600 102v8m0 280v8m148-148h4m-304 0h4" opacity=".1"/></svg>