<svg xmlns="http://www.w3.org/2000/svg" fill="none" viewBox="0 0 1200 500"><path stroke="#c9a84c" stroke-width=".8" d="m600 90 220 150-80 180H460l-80-180z" opacity=".1"/><circle cx="600" cy="90" r="35" stroke="#2e2b59" stroke-width="1.2" opacity=".15"/><circle cx="600" cy="90" r="18" stroke="#2e2b59" stroke-dasharray="3,3" stroke-width=".5" opacity=".1"/><circle cx="600" cy="90" r="4" fill="#2e2b59" opacity=".12"/><circle cx="820" cy="240" r="35" stroke="#6f4278" stroke-width="1.2" opacity=".15"/><path stroke="#6f4278" stroke-width=".8" d="M798 232q10-6 20 0t20 0" opacity=".12"/><path stroke="#6f4278" stroke-width=".8" d="M798 240q10-6 20 0t20 0" opacity=".12"/><path stroke="#6f4278" stroke-width=".8" d="M798 248q10-6 20 0t20 0" opacity=".12"/><circle cx="740" cy="420" r="35" stroke="#c9a84c" stroke-width="1.2" opacity=".15"/><path stroke="#c9a84c" stroke-width=".8" d="m740 392 20 48h-40z" opacity=".12"/><circle cx="460" cy="420" r="35" stroke="#6f4278" stroke-width="1.2" opacity=".15"/><path stroke="#6f4278" stroke-width=".8" d="M438 415q11-10 22 0t22 0" opacity=".12"/><path stroke="#6f4278" stroke-width=".8" d="M438 428q11-10 22 0t22 0" opacity=".12"/><circle cx="380" cy="240" r="35" stroke="#2e2b59" stroke-width="1.2" opacity=".15"/><path stroke="#2e2b59" stroke-width=".8" d="M360 222h40v36h-40z" opacity=".12"/><circle cx="600" cy="260" r="5" fill="#c9a84c" opacity=".1"/><path stroke="#c9a84c" stroke-width=".4" d="M600 90v170m220-20-220 20m140 160L600 260M460 420l140-160m-220-20 220 20" opacity=".06"/></svg>