<svg xmlns="http://www.w3.org/2000/svg" fill="none" viewBox="0 0 1200 500"><path stroke="#6f4278" stroke-width="1.5" d="M600 50v400" opacity=".08"/><circle cx="600" cy="65" r="22" stroke="#9b59b6" stroke-width="1.2" opacity=".15"/><circle cx="600" cy="65" r="10" fill="#9b59b6" opacity=".08"/><circle cx="600" cy="120" r="22" stroke="#2e2b59" stroke-width="1.2" opacity=".15"/><circle cx="600" cy="120" r="10" fill="#2e2b59" opacity=".08"/><circle cx="600" cy="175" r="22" stroke="#3498db" stroke-width="1.2" opacity=".15"/><circle cx="600" cy="175" r="10" fill="#3498db" opacity=".08"/><circle cx="600" cy="235" r="24" stroke="#27ae60" stroke-width="1.2" opacity=".15"/><circle cx="600" cy="235" r="11" fill="#27ae60" opacity=".08"/><circle cx="600" cy="295" r="22" stroke="#c9a84c" stroke-width="1.2" opacity=".15"/><circle cx="600" cy="295" r="10" fill="#c9a84c" opacity=".08"/><circle cx="600" cy="355" r="22" stroke="#e67e22" stroke-width="1.2" opacity=".15"/><circle cx="600" cy="355" r="10" fill="#e67e22" opacity=".08"/><circle cx="600" cy="415" r="22" stroke="#e74c3c" stroke-width="1.2" opacity=".15"/><circle cx="600" cy="415" r="10" fill="#e74c3c" opacity=".08"/><path stroke="#9b59b6" stroke-width=".5" d="M578 65h-38m82 0h38" opacity=".08"/><path stroke="#3498db" stroke-width=".5" d="M578 175h-48m92 0h48" opacity=".08"/><path stroke="#27ae60" stroke-width=".5" d="M576 235h-56m104 0h56" opacity=".08"/><path stroke="#e67e22" stroke-width=".5" d="M578 355h-48m92 0h48" opacity=".08"/><ellipse cx="600" cy="240" stroke="#6f4278" stroke-width=".6" opacity=".06" rx="60" ry="210"/><ellipse cx="600" cy="240" stroke="#c9a84c" stroke-width=".4" opacity=".04" rx="90" ry="230"/></svg>