<svg xmlns="http://www.w3.org/2000/svg" fill="none" viewBox="0 0 1200 500"><rect width="300" height="300" x="450" y="100" stroke="#c9a84c" stroke-width="1.2" opacity=".15" rx="2"/><path stroke="#c9a84c" stroke-width=".8" d="M550 100v300m100-300v300M450 200h300M450 300h300" opacity=".12"/><path stroke="#6f4278" d="M600 100V60" opacity=".15"/><path fill="#6f4278" d="m600 50-6 15h12z" opacity=".15"/><path stroke="#6f4278" d="M600 400v40" opacity=".12"/><path fill="#6f4278" d="m600 450-6-15h12z" opacity=".12"/><path stroke="#6f4278" d="M750 250h40" opacity=".12"/><path fill="#6f4278" d="m800 250-15-6v12z" opacity=".12"/><path stroke="#6f4278" d="M450 250h-40" opacity=".12"/><path fill="#6f4278" d="m400 250 15-6v12z" opacity=".12"/><path stroke="#2e2b59" stroke-width=".5" d="m450 100 300 300m0-300L450 400" opacity=".08"/><circle cx="600" cy="250" r="15" stroke="#c9a84c" stroke-width=".8" opacity=".12"/><circle cx="600" cy="250" r="3" fill="#c9a84c" opacity=".15"/><circle cx="450" cy="100" r="4" fill="#2e2b59" opacity=".08"/><circle cx="750" cy="100" r="4" fill="#2e2b59" opacity=".08"/><circle cx="450" cy="400" r="4" fill="#2e2b59" opacity=".08"/><circle cx="750" cy="400" r="4" fill="#2e2b59" opacity=".08"/><rect width="340" height="340" x="430" y="80" stroke="#2e2b59" stroke-dasharray="6,4" stroke-width=".5" opacity=".06" rx="4"/></svg>