<svg xmlns="http://www.w3.org/2000/svg" fill="none" viewBox="0 0 1200 500"><g opacity=".15" transform="translate(600 280)"><ellipse cy="30" stroke="#c9a84c" stroke-width="1.2" rx="50" ry="12"/><path stroke="#c9a84c" stroke-width="1.2" d="M-50 30q5-30 20-45h60Q45 0 50 30"/><ellipse cy="-15" stroke="#c9a84c" stroke-width=".6" rx="30" ry="6"/><path fill="#c9a84c" fill-opacity=".1" stroke="#c9a84c" d="M0-15q-12-35 0-65 12 30 0 65"/><path stroke="#6f4278" stroke-width=".6" d="M0-20q-6-25 0-45 6 20 0 45"/><circle cy="-50" r="20" fill="#c9a84c" opacity=".06"/></g><g stroke="#6f4278" opacity=".1" transform="matrix(.6 0 0 .6 300 320)"><ellipse cy="30" stroke-width="1.2" rx="50" ry="12"/><path stroke-width="1.2" d="M-50 30q5-30 20-45h60Q45 0 50 30"/><path fill="#6f4278" fill-opacity=".08" stroke-width=".8" d="M0-15q-10-30 0-55 10 25 0 55"/></g><g stroke="#6f4278" opacity=".1" transform="matrix(.6 0 0 .6 900 320)"><ellipse cy="30" stroke-width="1.2" rx="50" ry="12"/><path stroke-width="1.2" d="M-50 30q5-30 20-45h60Q45 0 50 30"/><path fill="#6f4278" fill-opacity=".08" stroke-width=".8" d="M0-15q-10-30 0-55 10 25 0 55"/></g><path stroke="#c9a84c" stroke-width=".4" d="m600 180-20-80m20 80 20-80" opacity=".08"/><path stroke="#c9a84c" stroke-width=".3" d="m600 180-50-60m50 60 50-60" opacity=".06"/><circle cx="570" cy="140" r="1.5" fill="#c9a84c" opacity=".12"/><circle cx="630" cy="130" r="1" fill="#c9a84c" opacity=".1"/><circle cx="590" cy="110" r="1" fill="#6f4278" opacity=".08"/><circle cx="615" cy="150" r="1.5" fill="#c9a84c" opacity=".1"/></svg>