<svg xmlns="http://www.w3.org/2000/svg" fill="none" viewBox="0 0 1200 500"><g opacity=".15" transform="translate(600 300)"><path stroke="#c9a84c" stroke-width="1.2" d="M-80-20H80L60 60H-60z"/><path stroke="#c9a84c" stroke-width=".8" d="M-55-20H55L40 45h-80z"/><rect width="190" height="15" x="-95" y="60" stroke="#c9a84c" rx="2"/><rect width="210" height="12" x="-105" y="75" stroke="#6f4278" stroke-width=".8" rx="2"/></g><g opacity=".15"><path fill="#c9a84c" fill-opacity=".06" stroke="#c9a84c" stroke-width="1.2" d="M600 280q-20-60 0-130 20 70 0 130"/><path stroke="#c9a84c" stroke-width=".8" d="M575 280q-15-50-5-110 15 60 5 110m50 0q15-50 5-110-15 60-5 110"/><path stroke="#6f4278" stroke-width=".6" d="M555 280q-7-35 0-80 7 45 0 80m90 0q7-35 0-80-7 45 0 80"/></g><circle cx="590" cy="130" r="2" fill="#c9a84c" opacity=".1"/><circle cx="610" cy="110" r="1.5" fill="#c9a84c" opacity=".08"/><circle cx="600" cy="90" r="1.5" fill="#6f4278" opacity=".06"/><circle cx="585" cy="100" r="1" fill="#c9a84c" opacity=".06"/><circle cx="615" cy="80" r="1" fill="#6f4278" opacity=".05"/><path stroke="#2e2b59" stroke-width=".5" d="M560 285q10-7 20 0m40 0q10-7 20 0" opacity=".08"/><circle cx="600" cy="220" r="50" fill="#c9a84c" opacity=".04"/><circle cx="600" cy="200" r="30" fill="#c9a84c" opacity=".04"/></svg>