<svg xmlns="http://www.w3.org/2000/svg" fill="none" viewBox="0 0 1200 500"><circle cx="600" cy="250" r="180" stroke="#c9a84c" stroke-width="1.5" opacity=".15"/><circle cx="600" cy="250" r="120" stroke="#6f4278" opacity=".12"/><circle cx="600" cy="250" r="60" stroke="#2e2b59" stroke-width=".8" opacity=".1"/><path stroke="#c9a84c" stroke-width=".8" d="M600 70v360M420 250h360" opacity=".12"/><path stroke="#6f4278" stroke-width=".8" d="m473 123 254 254m0-254L473 377" opacity=".1"/><path stroke="#2e2b59" stroke-width=".6" d="m510 94 180 312m0-312L510 406" opacity=".08"/><path stroke="#c9a84c" d="m600 70 180 180-180 180-180-180z" opacity=".1"/><circle cx="600" cy="70" r="3" fill="#c9a84c" opacity=".15"/><circle cx="780" cy="250" r="3" fill="#c9a84c" opacity=".15"/><circle cx="600" cy="430" r="3" fill="#c9a84c" opacity=".15"/><circle cx="420" cy="250" r="3" fill="#c9a84c" opacity=".15"/><circle cx="150" cy="100" r="2" fill="#c9a84c" opacity=".12"/><circle cx="1050" cy="80" r="2" fill="#6f4278" opacity=".1"/><circle cx="200" cy="380" r="1.5" fill="#2e2b59" opacity=".1"/><circle cx="1000" cy="400" r="2" fill="#c9a84c" opacity=".1"/><circle cx="100" cy="250" r="1.5" fill="#6f4278" opacity=".08"/><circle cx="1100" cy="250" r="1.5" fill="#c9a84c" opacity=".08"/></svg>