<svg xmlns="http://www.w3.org/2000/svg" viewBox="0 0 800 450"><defs><radialGradient id="a" cx="50%" cy="50%" r="60%"><stop offset="0%" stop-color="#3a3670"/><stop offset="100%" stop-color="#2e2b59"/></radialGradient><radialGradient id="b" cx="50%" cy="50%" r="50%"><stop offset="0%" stop-color="#c9a84c" stop-opacity=".3"/><stop offset="100%" stop-color="#c9a84c" stop-opacity="0"/></radialGradient></defs><path fill="url(#a)" d="M0 0h800v450H0z"/><circle cx="120" cy="60" r="1.5" fill="#fffdf0" opacity=".6"/><circle cx="680" cy="90" r="1" fill="#fffdf0" opacity=".5"/><circle cx="200" cy="380" r="1.2" fill="#fffdf0" opacity=".4"/><circle cx="600" cy="350" r="1" fill="#fffdf0" opacity=".7"/><circle cx="50" cy="200" r="1.3" fill="#fffdf0" opacity=".5"/><circle cx="750" cy="250" r="1" fill="#fffdf0" opacity=".6"/><circle cx="350" cy="40" r="1.5" fill="#fffdf0" opacity=".4"/><circle cx="500" cy="400" r="1" fill="#fffdf0" opacity=".5"/><circle cx="90" cy="310" r="1.2" fill="#fffdf0" opacity=".3"/><circle cx="720" cy="170" r="1.4" fill="#fffdf0" opacity=".5"/><circle cx="400" cy="210" r="100" fill="url(#b)"/><circle cx="400" cy="210" r="70" fill="none" stroke="#c9a84c" stroke-width=".8" opacity=".3"/><ellipse cx="400" cy="210" fill="none" stroke="#c9a84c" stroke-width=".8" opacity=".25" rx="120" ry="90" transform="rotate(-15 400 210)"/><ellipse cx="400" cy="210" fill="none" stroke="#c9a84c" stroke-width=".8" opacity=".2" rx="170" ry="120" transform="rotate(10 400 210)"/><circle cx="400" cy="210" r="22" fill="#f93" opacity=".9"/><circle cx="400" cy="210" r="16" fill="#c9a84c"/><circle cx="470" cy="200" r="8" fill="#6f4278" stroke="#c9a84c" stroke-width="1.5"/><circle cx="310" cy="140" r="12" fill="#f93" opacity=".8"/><circle cx="310" cy="140" r="7" fill="#c9a84c" opacity=".5"/><circle cx="530" cy="280" r="10" fill="#6f4278"/><ellipse cx="530" cy="280" fill="none" stroke="#c9a84c" stroke-width="1.2" opacity=".7" rx="18" ry="5" transform="rotate(-20 530 280)"/><circle cx="260" cy="260" r="6" fill="#c9a84c" opacity=".7"/><path fill="none" stroke="#c9a84c" stroke-width="1.5" d="M30 30h40m-40 0v40m700-40h40m0 0v40M30 420h40m-40-40v40m700 0h40m0-40v40" opacity=".5"/><text x="400" y="400" fill="#c9a84c" font-family="Georgia, serif" font-size="32" font-weight="bold" text-anchor="middle">Planetary Transits</text></svg>