<svg xmlns="http://www.w3.org/2000/svg" viewBox="0 0 800 450"><defs><radialGradient id="a" cx="50%" cy="50%" r="65%"><stop offset="0%" stop-color="#3a3670"/><stop offset="100%" stop-color="#2e2b59"/></radialGradient></defs><path fill="url(#a)" d="M0 0h800v450H0z"/><g opacity=".6" transform="translate(160 200)"><path fill="none" stroke="#c9a84c" stroke-width="1.2" d="M-70-70H70V70H-70z"/><path fill="none" stroke="#c9a84c" d="M0-70.71 70.71 0 0 70.71-70.71 0z"/><path fill="none" stroke="#f93" d="m0-55 48 90h-96z"/><path fill="none" stroke="#f93" d="m0 55 48-90h-96z"/><circle r="15" fill="none" stroke="#c9a84c" stroke-width="1.2"/><circle r="5" fill="#c9a84c" opacity=".6"/><path stroke="#c9a84c" stroke-width=".5" d="M-70 0H70M0-70V70" opacity=".3"/></g><g transform="translate(400 210)"><path fill="#6f4278" stroke="#c9a84c" stroke-width="1.5" d="m0-50 35 35-10 45h-50l-10-45z"/><path fill="#6f4278" stroke="#c9a84c" stroke-width=".5" d="m0-50 35 35L0 5z" opacity=".8"/><path fill="#7d508a" stroke="#c9a84c" stroke-width=".5" d="m0-50-35 35L0 5z" opacity=".6"/><path fill="#5a3566" stroke="#c9a84c" stroke-width=".5" d="M35-15 25 30 0 5z" opacity=".7"/><path fill="#6f4278" stroke="#c9a84c" stroke-width=".5" d="m-35-15 10 45L0 5z" opacity=".5"/><path fill="#5a3566" stroke="#c9a84c" stroke-width=".5" d="M25 30h-50L0 5z" opacity=".6"/><path stroke="#fffdf0" stroke-width="1.5" d="M-5-30 5-20m0-10L-5-20" opacity=".8"/><circle cy="-5" r="45" fill="none" stroke="#c9a84c" stroke-width=".5" opacity=".15"/><circle cy="-5" r="60" fill="none" stroke="#c9a84c" stroke-width=".5" opacity=".1"/></g><g transform="translate(620 195)"><rect width="90" height="130" x="-45" y="-65" fill="#3a3670" stroke="#c9a84c" stroke-width="1.2" rx="3"/><ellipse cy="-65" fill="#c9a84c" opacity=".7" rx="50" ry="8"/><ellipse cy="65" fill="#c9a84c" opacity=".7" rx="50" ry="8"/><path stroke="#f93" d="M-30-45h60" opacity=".6"/><path stroke="#f93" stroke-width=".8" d="M-30-45v10m20-10v10m25-10v10" opacity=".4"/><path stroke="#f93" d="M-30-25h60" opacity=".6"/><path stroke="#f93" stroke-width=".8" d="M-25-25v10M0-25v10m20-10v10" opacity=".4"/><path stroke="#f93" d="M-30-5h60m-60 20h60m-60 20h60" opacity=".6"/><text y="55" fill="#c9a84c" font-family="serif" font-size="18" opacity=".7" text-anchor="middle">ॐ</text></g><path fill="none" stroke="#c9a84c" stroke-width="1.5" d="M30 30h40m-40 0v40m700-40h40m0 0v40M30 420h40m-40-40v40m700 0h40m0-40v40" opacity=".5"/><text x="400" y="395" fill="#c9a84c" font-family="Georgia, serif" font-size="32" font-weight="bold" text-anchor="middle">Remedies &amp; Solutions</text></svg>