<svg xmlns="http://www.w3.org/2000/svg" viewBox="0 0 800 450"><defs><radialGradient id="a" cx="50%" cy="45%" r="65%"><stop offset="0%" stop-color="#3a3670"/><stop offset="100%" stop-color="#2e2b59"/></radialGradient><radialGradient id="b" cx="50%" cy="50%" r="50%"><stop offset="0%" stop-color="#c9a84c" stop-opacity=".15"/><stop offset="50%" stop-color="#6f4278" stop-opacity=".08"/><stop offset="100%" stop-color="#6f4278" stop-opacity="0"/></radialGradient></defs><path fill="url(#a)" d="M0 0h800v450H0z"/><circle cx="100" cy="60" r="1.2" fill="#fffdf0" opacity=".5"/><circle cx="700" cy="50" r="1" fill="#fffdf0" opacity=".6"/><circle cx="180" cy="130" r="1" fill="#fffdf0" opacity=".4"/><circle cx="620" cy="120" r="1.5" fill="#fffdf0" opacity=".5"/><circle cx="60" cy="300" r="1.2" fill="#fffdf0" opacity=".4"/><circle cx="740" cy="280" r="1" fill="#fffdf0" opacity=".5"/><circle cx="400" cy="220" r="150" fill="url(#b)"/><g transform="translate(400 240)"><circle cy="-75" r="22" fill="#6f4278" stroke="#c9a84c" opacity=".9"/><path fill="#6f4278" stroke="#c9a84c" d="M0-53q-12 18-20 33-15 20-35 50 15 5 55 10 40-5 55-10Q35 0 20-20 12-35 0-53Z" opacity=".9"/><path fill="#6f4278" stroke="#c9a84c" d="M-55 30q-5 15 5 25 20 5 50-5 30 10 50 5 10-10 5-25" opacity=".9"/><path fill="none" stroke="#c9a84c" d="M-20-20Q-40-5-55 15q5 5 10 0m65-35Q40-5 55 15q-5 5-10 0" opacity=".7"/><circle cy="-65" r="3" fill="#6f4278" stroke="#c9a84c" stroke-width=".8" opacity=".8"/><circle cy="-50" r="3" fill="#f93" opacity=".7"/><circle cy="-35" r="3" fill="#c9a84c" opacity=".6"/><circle cy="-20" r="3" fill="#f93" opacity=".7"/><circle cy="-5" r="3" fill="#c9a84c" opacity=".6"/><circle cy="10" r="3" fill="#f93" opacity=".7"/><circle cy="25" r="3" fill="#c9a84c" opacity=".6"/><ellipse cy="-15" fill="none" stroke="#c9a84c" stroke-width=".6" opacity=".15" rx="75" ry="50"/><ellipse cy="-15" fill="none" stroke="#f93" stroke-width=".6" opacity=".12" rx="100" ry="70"/><ellipse cy="-15" fill="none" stroke="#c9a84c" stroke-width=".6" opacity=".08" rx="130" ry="90"/></g><g transform="translate(400 340)"><ellipse cx="-35" cy="-5" fill="none" stroke="#c9a84c" opacity=".5" rx="22" ry="10" transform="rotate(-30 -35 -5)"/><ellipse cx="35" cy="-5" fill="none" stroke="#c9a84c" opacity=".5" rx="22" ry="10" transform="rotate(30 35 -5)"/><ellipse cx="-20" cy="-12" fill="none" stroke="#f93" opacity=".4" rx="20" ry="9" transform="rotate(-15 -20 -12)"/><ellipse cx="20" cy="-12" fill="none" stroke="#f93" opacity=".4" rx="20" ry="9" transform="rotate(15 20 -12)"/><ellipse cy="-15" fill="none" stroke="#c9a84c" stroke-width="1.2" opacity=".6" rx="18" ry="10"/><circle cy="-10" r="5" fill="#c9a84c" opacity=".4"/></g><path fill="none" stroke="#c9a84c" stroke-width="1.5" d="M30 30h40m-40 0v40m700-40h40m0 0v40M30 420h40m-40-40v40m700 0h40m0-40v40" opacity=".5"/><text x="400" y="420" fill="#c9a84c" font-family="Georgia, serif" font-size="32" font-weight="bold" text-anchor="middle">Spiritual Growth</text></svg>