<svg xmlns="http://www.w3.org/2000/svg" viewBox="0 0 800 450"><defs><radialGradient id="a" cx="50%" cy="50%" r="65%"><stop offset="0%" stop-color="#3a3670"/><stop offset="100%" stop-color="#2e2b59"/></radialGradient></defs><path fill="url(#a)" d="M0 0h800v450H0z"/><g transform="translate(230 210)"><circle r="80" fill="none" stroke="#c9a84c" stroke-width="1.2" opacity=".4"/><circle r="70" fill="none" stroke="#c9a84c" stroke-width=".8" opacity=".25"/><path fill="#f93" d="m0-75 8 55H-8z" opacity=".8"/><path fill="#c9a84c" d="m0 75 8-55H-8zM-75 0l55 8V-8zM75 0 20 8V-8z" opacity=".6"/><path fill="#c9a84c" d="m-53-53 35 43 8-8zm106 0L18-10l-8-8zM-53 53l35-43 8 8zm106 0L18 10l-8 8z" opacity=".4"/><circle r="8" fill="#6f4278" stroke="#c9a84c" stroke-width="1.2"/><text y="-88" fill="#f93" font-family="Georgia, serif" font-size="14" font-weight="bold" text-anchor="middle">N</text><text y="100" fill="#c9a84c" font-family="Georgia, serif" font-size="14" text-anchor="middle">S</text><text x="-92" y="5" fill="#c9a84c" font-family="Georgia, serif" font-size="14" text-anchor="middle">W</text><text x="92" y="5" fill="#c9a84c" font-family="Georgia, serif" font-size="14" text-anchor="middle">E</text></g><g transform="translate(540 195)"><path fill="none" stroke="#c9a84c" stroke-width="2" d="m0-80 100 50h-200z"/><path fill="none" stroke="#c9a84c" stroke-width="1.5" d="M-85-30H85V90H-85z"/><path fill="#6f4278" stroke="#c9a84c" stroke-width="1.2" d="M-18 30h36v60h-36z"/><circle cx="12" cy="62" r="2.5" fill="#c9a84c"/><path fill="#6f4278" stroke="#c9a84c" d="M-65-5h28v28h-28z" opacity=".8"/><path stroke="#c9a84c" stroke-width=".5" d="M-51-5v28M-65 9h28" opacity=".5"/><path fill="#6f4278" stroke="#c9a84c" d="M37-5h28v28H37z" opacity=".8"/><path stroke="#c9a84c" stroke-width=".5" d="M51-5v28M37 9h28" opacity=".5"/><path stroke="#f93" stroke-width=".5" d="M-85 30H85M-28-30V90M28-30V90" opacity=".25"/></g><path fill="none" stroke="#f93" stroke-dasharray="4,4" d="M330 210q40-20 70 0t70 0" opacity=".3"/><path fill="none" stroke="#c9a84c" stroke-width="1.5" d="M30 30h40m-40 0v40m700-40h40m0 0v40M30 420h40m-40-40v40m700 0h40m0-40v40" opacity=".5"/><text x="400" y="400" fill="#c9a84c" font-family="Georgia, serif" font-size="32" font-weight="bold" text-anchor="middle">Vastu Tips</text></svg>