<svg xmlns="http://www.w3.org/2000/svg" viewBox="0 0 800 450"><defs><radialGradient id="a" cx="50%" cy="50%" r="65%"><stop offset="0%" stop-color="#3a3670"/><stop offset="100%" stop-color="#2e2b59"/></radialGradient><radialGradient id="b" cx="50%" cy="50%" r="50%"><stop offset="0%" stop-color="#c9a84c" stop-opacity=".15"/><stop offset="100%" stop-color="#c9a84c" stop-opacity="0"/></radialGradient></defs><path fill="url(#a)" d="M0 0h800v450H0z"/><circle cx="80" cy="50" r="1.2" fill="#fffdf0" opacity=".5"/><circle cx="720" cy="80" r="1" fill="#fffdf0" opacity=".6"/><circle cx="150" cy="380" r="1.5" fill="#fffdf0" opacity=".4"/><circle cx="650" cy="370" r="1" fill="#fffdf0" opacity=".5"/><circle cx="50" cy="220" r="1.3" fill="#fffdf0" opacity=".4"/><circle cx="750" cy="200" r="1.2" fill="#fffdf0" opacity=".5"/><circle cx="400" cy="210" r="140" fill="url(#b)"/><circle cx="400" cy="210" r="140" fill="none" stroke="#c9a84c" stroke-width="1.5" opacity=".5"/><circle cx="400" cy="210" r="120" fill="none" stroke="#c9a84c" opacity=".35"/><circle cx="400" cy="210" r="90" fill="none" stroke="#f93" stroke-width=".8" opacity=".3"/><circle cx="400" cy="210" r="25" fill="#6f4278" stroke="#c9a84c" opacity=".5"/><path stroke="#c9a84c" stroke-width=".8" d="M400 70v50m0 180v50M260 210h50m180 0h50m-239-99 32 38m134 122 32 38m0-198-32 38M333 271l-32 38m-31-169 40 21m180 98 40 21m0-140-40 21m-180 98-40 21" opacity=".3"/><circle cx="400" cy="70" r="5" fill="#f93" opacity=".8"/><circle cx="470" cy="82" r="4" fill="#c9a84c" opacity=".7"/><circle cx="525" cy="125" r="4" fill="#f93" opacity=".6"/><circle cx="540" cy="210" r="5" fill="#c9a84c" opacity=".8"/><circle cx="525" cy="295" r="4" fill="#f93" opacity=".6"/><circle cx="470" cy="338" r="4" fill="#c9a84c" opacity=".7"/><circle cx="400" cy="350" r="5" fill="#f93" opacity=".8"/><circle cx="330" cy="338" r="4" fill="#c9a84c" opacity=".7"/><circle cx="275" cy="295" r="4" fill="#f93" opacity=".6"/><circle cx="260" cy="210" r="5" fill="#c9a84c" opacity=".8"/><circle cx="275" cy="125" r="4" fill="#f93" opacity=".6"/><circle cx="330" cy="82" r="4" fill="#c9a84c" opacity=".7"/><g fill="#fffdf0" opacity=".7"><circle cx="600" cy="100" r="2.5"/><circle cx="620" cy="85" r="2"/><circle cx="645" cy="90" r="2.5"/><circle cx="660" cy="110" r="2"/><path stroke="#fffdf0" stroke-width=".8" d="m600 100 20-15m0 0 25 5m0 0 15 20" opacity=".4"/></g><g fill="#fffdf0" opacity=".6"><circle cx="120" cy="320" r="2"/><circle cx="140" cy="340" r="2.5"/><circle cx="165" cy="330" r="2"/><circle cx="155" cy="355" r="2"/><path stroke="#fffdf0" stroke-width=".8" d="m120 320 20 20m0 0 25-10m-25 10 15 15" opacity=".4"/></g><path fill="none" stroke="#c9a84c" stroke-width="1.5" d="M30 30h40m-40 0v40m700-40h40m0 0v40M30 420h40m-40-40v40m700 0h40m0-40v40" opacity=".5"/><text x="400" y="420" fill="#c9a84c" font-family="Georgia, serif" font-size="32" font-weight="bold" text-anchor="middle">Zodiac Signs</text></svg>